<?xml version="1.0" encoding="UTF-8" standalone="no"?>
<svg
   xmlns:dc="http://purl.org/dc/elements/1.1/"
   xmlns:cc="http://creativecommons.org/ns#"
   xmlns:rdf="http://www.w3.org/1999/02/22-rdf-syntax-ns#"
   xmlns:svg="http://www.w3.org/2000/svg"
   xmlns="http://www.w3.org/2000/svg"
   xmlns:sodipodi="http://sodipodi.sourceforge.net/DTD/sodipodi-0.dtd"
   xmlns:inkscape="http://www.inkscape.org/namespaces/inkscape"
   width="468"
   height="60"
   viewBox="0 0 123.825 15.875"
   version="1.1"
   id="svg3632"
   inkscape:version="1.0 (4035a4fb49, 2020-05-01)"
   sodipodi:docname="banner.svg">
  <defs
     id="defs3626" />
  <sodipodi:namedview
     id="base"
     pagecolor="#ffffff"
     bordercolor="#666666"
     borderopacity="1.0"
     inkscape:pageopacity="0.0"
     inkscape:pageshadow="2"
     inkscape:zoom="2.0095129"
     inkscape:cx="287.20376"
     inkscape:cy="12.529072"
     inkscape:document-units="mm"
     inkscape:current-layer="layer1"
     inkscape:document-rotation="0"
     showgrid="false"
     units="px"
     inkscape:window-width="1920"
     inkscape:window-height="1017"
     inkscape:window-x="-8"
     inkscape:window-y="-8"
     inkscape:window-maximized="1" />
  <metadata
     id="metadata3629">
    <rdf:RDF>
      <cc:Work
         rdf:about="">
        <dc:format>image/svg+xml</dc:format>
        <dc:type
           rdf:resource="http://purl.org/dc/dcmitype/StillImage" />
        <dc:title />
      </cc:Work>
    </rdf:RDF>
  </metadata>
  <g
     inkscape:label="Layer 1"
     inkscape:groupmode="layer"
     id="layer1">
    <text
       xml:space="preserve"
       style="font-size:10.5833px;line-height:1.25;font-family:'Buxton Sketch';-inkscape-font-specification:'Buxton Sketch';letter-spacing:0px;word-spacing:0px;stroke-width:0.264583"
       x="15.668183"
       y="10.533233"
       id="text4207"><tspan
         sodipodi:role="line"
         id="tspan4205"
         x="15.668183"
         y="10.533233"
         style="stroke-width:0.264583">Newbe.ObjectVisitor</tspan></text>
    <text
       xml:space="preserve"
       style="font-size:5.64444px;line-height:0.95;font-family:'Comic Sans MS';-inkscape-font-specification:'Comic Sans MS';letter-spacing:0px;word-spacing:0px;stroke-width:0.264583"
       x="93.745773"
       y="4.6082892"
       id="text4219"><tspan
         sodipodi:role="line"
         id="tspan4217"
         x="93.745773"
         y="4.6082892"
         style="font-size:5.64444px;stroke-width:0.264583">Faster</tspan><tspan
         sodipodi:role="line"
         x="93.745773"
         y="9.9705076"
         style="font-size:5.64444px;stroke-width:0.264583"
         id="tspan4221">Readable</tspan><tspan
         sodipodi:role="line"
         x="93.745773"
         y="15.332726"
         style="font-size:5.64444px;stroke-width:0.264583"
         id="tspan4223">Extendable</tspan></text>
    <path
       id="path4286"
       d="M 3.2595423,6.5756132 C 8.5013573,10.676148 9.7271683,5.5289048 9.8169173,5.4539575 5.9496953,1.9922257 3.6591873,5.0302793 3.2595423,6.5756132 Z"
       style="display:inline;fill:#b3b3b3;stroke:#000000;stroke-width:0.0800327px;stroke-linecap:butt;stroke-linejoin:miter;stroke-opacity:0.0124224"
       inkscape:connector-curvature="0" />
    <path
       id="path190"
       style="display:inline;fill:#004455;stroke-width:0.0180634"
       d="M 5.8019483,7.7130695 C 5.6538613,7.6908303 5.5254263,7.663902 5.4193333,7.6328534 5.3099143,7.6008308 5.2898093,7.587019 5.2041813,7.4850339 4.8720833,7.0894951 4.6659883,6.5620903 4.6331983,6.0238652 4.6206303,5.8175364 4.6038843,5.7899002 4.5134863,5.8262551 c -0.131111,0.052727 -0.127407,0.054613 -0.114155,-0.05814 0.02735,-0.2327137 0.167292,-0.4894709 0.387328,-0.7106513 0.08239,-0.082816 0.156396,-0.1505759 0.164462,-0.1505759 0.0081,0 0.01951,0.1198956 0.02543,0.2664346 0.0064,0.1593283 0.02555,0.3354183 0.04754,0.4380365 0.02023,0.094381 0.03689,0.1726353 0.03702,0.173899 1.27e-4,0.00124 -0.03463,-0.00165 -0.07724,-0.00644 -0.120833,-0.01362 -0.130713,0.012488 -0.07607,0.2010298 0.08034,0.2772268 0.226986,0.5298222 0.436603,0.7520275 0.133616,0.14164 0.17577,0.1631822 0.22346,0.1141949 0.05167,-0.053079 1.299828,-2.0113608 1.299828,-2.0393529 0,-0.027432 -0.09586,-0.093951 -0.58198,-0.403878 l -0.32006,-0.2040539 -0.08637,0.021657 c -0.149788,0.037564 -0.250676,-0.039486 -0.24727,-0.1888464 0.0033,-0.1422007 0.103626,-0.2572487 0.240474,-0.2756035 0.09531,-0.012785 0.177634,0.060337 0.196744,0.1747509 l 0.01346,0.080567 0.442175,0.2846525 c 0.243196,0.1565591 0.455708,0.2849061 0.472248,0.2852159 0.03292,6.421e-4 0.267972,-0.3517807 0.267972,-0.4017547 0,-0.016027 -0.01594,-0.056151 -0.03542,-0.089167 -0.05728,-0.097076 -0.09613,-0.2777424 -0.08275,-0.3848157 0.02634,-0.2108401 0.17369,-0.4145502 0.36808,-0.5088747 0.08795,-0.042675 0.125159,-0.049735 0.264891,-0.050256 0.141942,-5.216e-4 0.175551,0.00577 0.264875,0.049633 0.136224,0.066897 0.243625,0.1772898 0.310151,0.3187911 0.143757,0.3057709 0.0071,0.6799714 -0.304076,0.8327628 -0.07855,0.038568 -0.116128,0.044503 -0.288505,0.045565 l -0.19819,0.0012 -0.114078,0.1794535 c -0.06274,0.0987 -0.111743,0.1948911 -0.108888,0.2137583 0.0072,0.047564 0.894726,0.6134765 0.934202,0.5956726 0.01559,-0.00703 0.06271,-0.016268 0.104718,-0.02053 0.217018,-0.02201 0.258722,0.3050847 0.05475,0.4294462 -0.134385,0.081936 -0.302727,0.00888 -0.302727,-0.1313836 0,-0.03624 -0.01308,-0.073309 -0.03161,-0.089602 -0.0804,-0.070684 -0.863806,-0.5558046 -0.897149,-0.5555566 -0.0298,2.231e-4 -0.152223,0.1794768 -0.588562,0.8618014 -0.303013,0.4738368 -0.598943,0.9375705 -0.657623,1.0305194 l -0.106691,0.1689977 0.03638,0.036377 c 0.04163,0.041635 0.286853,0.128272 0.458253,0.1619029 0.150195,0.02947 0.558897,0.026533 0.67611,-0.00486 0.105868,-0.028355 0.124489,-0.073622 0.06478,-0.157478 l -0.03708,-0.052065 0.175813,-0.040359 c 0.172408,-0.039579 0.481895,-0.1465783 0.598755,-0.2070091 0.0325,-0.016806 0.06295,-0.026701 0.06767,-0.021986 0.0047,0.00472 -0.01678,0.084568 -0.04776,0.1774504 -0.09536,0.2858587 -0.247194,0.5044793 -0.458322,0.6599031 -0.05825,0.042883 -0.112723,0.077969 -0.121045,0.077969 -0.0083,0 -0.01759,-0.041837 -0.02059,-0.092972 -0.0078,-0.132579 -0.03201,-0.1414113 -0.200855,-0.073236 -0.156491,0.063186 -0.447913,0.1391605 -0.63552,0.1656815 -0.120089,0.016978 -0.508512,0.021396 -0.605122,0.00689 z m 2.140663,-3.5804673 c 0.08834,-0.040129 0.178103,-0.138931 0.207695,-0.2285958 0.03432,-0.1039862 0.01543,-0.2633779 -0.04139,-0.3492385 -0.20331,-0.3072228 -0.687512,-0.1866787 -0.71387,0.1777212 -0.0092,0.1278904 0.01833,0.2175785 0.09307,0.3027107 0.109755,0.1250044 0.302713,0.1663568 0.454497,0.097402 z m -0.430614,9.5655138 c -0.437014,-0.02866 -0.999088,-0.133199 -1.366803,-0.254201 -0.832406,-0.273917 -1.397656,-0.748079 -1.653516,-1.387061 -0.107483,-0.268425 -0.147469,-0.467563 -0.164633,-0.819893 -0.017145,-0.351948 -0.045298,-0.589552 -0.130011,-1.097243 -0.181099,-1.0853413 -0.524328,-2.5543977 -0.755829,-3.235032 -0.03046,-0.08957 -0.05539,-0.1653689 -0.05539,-0.1684431 0,-0.00305 0.0649,0.043818 0.144228,0.1042025 0.21078,0.1604527 0.66159,0.458074 0.926115,0.6114139 1.522542,0.8825832 2.816245,0.9901128 3.831376,0.3184547 0.494013,-0.3268616 0.879913,-0.7921182 1.236119,-1.4903112 l 0.122444,-0.2400015 -0.01103,0.11077 c -0.08276,0.8316031 -0.01984,1.9753837 0.157095,2.855694 0.15757,0.7839553 0.4359197,1.3784417 0.7060197,1.5078827 0.04315,0.02068 0.165678,0.05505 0.272294,0.07639 0.694522,0.139015 1.27485,0.345792 1.578395,0.562397 0.138551,0.09887 0.203472,0.172464 0.261226,0.29613 0.197818,0.423581 -0.307928,0.974701 -1.405772,1.531899 -0.891709,0.452576 -1.5298587,0.630772 -2.5457757,0.710883 -0.216853,0.0171 -0.921467,0.02083 -1.146557,0.0061 z M 1.2364933,8.0315901 V 1.2364927 h 6.795097 6.7950967 V 8.0315901 14.826687 H 8.0315903 1.2364933 Z m 7.570575,6.3434749 c 0.807528,-0.03028 1.5339337,-0.154105 2.1405827,-0.364881 0.678973,-0.235905 1.573002,-0.680406 2.081519,-1.034907 0.321984,-0.224465 0.625716,-0.501376 0.768649,-0.700778 0.199742,-0.278652 0.256475,-0.584356 0.151861,-0.818318 -0.12311,-0.275329 -0.429732,-0.518528 -0.912449,-0.723716 -0.34176,-0.145271 -0.767763,-0.268248 -1.515395,-0.437462 C 11.290685,10.242686 11.195258,10.190226 11.08219,10.05331 10.742074,9.6414603 10.481771,8.768038 10.321301,7.5002198 10.27027,7.0970453 10.248842,6.6828743 10.248824,6.0993353 c -1.6e-5,-0.5964515 0.02389,-1.1109245 0.06371,-1.3711154 0.03948,-0.257961 0.106497,-0.5610321 0.129026,-0.5835342 0.04043,-0.040379 0.01558,-0.088963 -0.08449,-0.1652192 C 10.30166,3.9372377 10.154756,3.8195507 10.030622,3.7179401 9.6072253,3.3713636 9.1186863,3.0324899 8.6925603,2.7897958 8.4795123,2.6684575 8.0669153,2.4670452 7.9242703,2.4147497 7.7957813,2.3676441 7.6849843,2.314058 7.6849843,2.2990203 c 0,-0.00702 0.06425,-0.1203479 0.14279,-0.251835 0.180329,-0.3019174 0.230075,-0.4000987 0.218277,-0.4308074 -0.01337,-0.034811 -0.07251,-0.050297 -0.08954,-0.023447 -0.0077,0.012079 -0.103552,0.1668805 -0.21309,0.3440038 -0.171588,0.277457 -0.204485,0.3218191 -0.237619,0.3204299 -0.02115,-8.829e-4 -0.125513,-0.024137 -0.231913,-0.051665 -0.412157,-0.1066364 -0.968843,-0.1544877 -1.362244,-0.1170947 -0.915689,0.087038 -1.714793,0.4844292 -2.419356,1.2031367 -0.380826,0.388471 -0.646071,0.7548184 -0.894213,1.2350553 -0.15706,0.3039628 -0.220235,0.4480045 -0.321998,0.7341695 l -0.07437,0.2091434 0.05529,0.1173615 c 0.294368,0.6248036 0.93362,3.3356272 1.138332,4.8272329 0.03492,0.254471 0.07397,0.662852 0.09006,0.941974 0.02408,0.417578 0.112964,0.766476 0.279881,1.098585 0.146713,0.291909 0.267144,0.461577 0.492962,0.694503 0.639803,0.659945 1.567818,1.043096 2.910863,1.20181 0.119701,0.01415 0.232146,0.02802 0.249879,0.03084 0.07982,0.01268 0.981049,0.0079 1.388085,-0.0073 z" />
  </g>
</svg>
