<?xml version="1.0" encoding="UTF-8" standalone="no"?>
<svg
   xmlns:dc="http://purl.org/dc/elements/1.1/"
   xmlns:cc="http://creativecommons.org/ns#"
   xmlns:rdf="http://www.w3.org/1999/02/22-rdf-syntax-ns#"
   xmlns:svg="http://www.w3.org/2000/svg"
   xmlns="http://www.w3.org/2000/svg"
   xmlns:sodipodi="http://sodipodi.sourceforge.net/DTD/sodipodi-0.dtd"
   xmlns:inkscape="http://www.inkscape.org/namespaces/inkscape"
   sodipodi:docname="banner.svg"
   inkscape:version="1.0 (4035a4fb49, 2020-05-01)"
   id="svg3632"
   version="1.1"
   viewBox="0 0 123.825 15.875"
   height="60"
   width="468">
  <defs
     id="defs3626" />
  <sodipodi:namedview
     inkscape:window-maximized="1"
     inkscape:window-y="-8"
     inkscape:window-x="-8"
     inkscape:window-height="1017"
     inkscape:window-width="1920"
     units="px"
     showgrid="false"
     inkscape:document-rotation="0"
     inkscape:current-layer="layer1"
     inkscape:document-units="mm"
     inkscape:cy="-47.186892"
     inkscape:cx="287.20376"
     inkscape:zoom="2.0095129"
     inkscape:pageshadow="2"
     inkscape:pageopacity="0.0"
     borderopacity="1.0"
     bordercolor="#666666"
     pagecolor="#ffffff"
     id="base" />
  <metadata
     id="metadata3629">
    <rdf:RDF>
      <cc:Work
         rdf:about="">
        <dc:format>image/svg+xml</dc:format>
        <dc:type
           rdf:resource="http://purl.org/dc/dcmitype/StillImage" />
        <dc:title></dc:title>
      </cc:Work>
    </rdf:RDF>
  </metadata>
  <g
     id="layer1"
     inkscape:groupmode="layer"
     inkscape:label="Layer 1">
    <text
       id="text4207"
       y="10.533233"
       x="15.668183"
       style="font-size:10.5833px;line-height:1.25;font-family:'Buxton Sketch';-inkscape-font-specification:'Buxton Sketch';letter-spacing:0px;word-spacing:0px;stroke-width:0.264583"
       xml:space="preserve"><tspan
         style="stroke-width:0.264583"
         y="10.533233"
         x="15.668183"
         id="tspan4205"
         sodipodi:role="line">Newbe.ObjectVisitor</tspan></text>
    <text
       id="text4219"
       y="4.6082892"
       x="93.745773"
       style="font-size:5.64444px;line-height:0.95;font-family:'Comic Sans MS';-inkscape-font-specification:'Comic Sans MS';letter-spacing:0px;word-spacing:0px;stroke-width:0.264583"
       xml:space="preserve"><tspan
         style="font-size:5.64444px;stroke-width:0.264583"
         y="4.6082892"
         x="93.745773"
         id="tspan4217"
         sodipodi:role="line">Faster</tspan><tspan
         id="tspan4221"
         style="font-size:5.64444px;stroke-width:0.264583"
         y="9.9705076"
         x="93.745773"
         sodipodi:role="line">Readable</tspan><tspan
         id="tspan4223"
         style="font-size:5.64444px;stroke-width:0.264583"
         y="15.332726"
         x="93.745773"
         sodipodi:role="line">Extendable</tspan></text>
    <path
       id="path4286"
       style="display:inline;fill:none;stroke:#000000;stroke-width:0.110492px;stroke-linecap:butt;stroke-linejoin:miter;stroke-opacity:1"
       d="m 1.3782467,4.9245455 c 7.23676,5.6611275 8.9291103,-1.445069 9.0530003,-1.54854 -5.3390103,-4.77921 -8.5012603,-0.584924 -9.0530003,1.54854 z m 0.16751,-0.310534 c 0.26137,-0.758516 0.81577,-1.606992 1.42419,-2.179669 1.05713,-0.99504 2.33972,-1.374693 3.70285,-1.096087 0.13413,0.0274 0.30321,0.06754 0.37587,0.08921 l 0.13216,0.03938 -0.23167,0.375953 c -0.50166,0.814137 -1.40663,2.240966 -1.44575,2.279466 -0.0289,0.02836 -0.30584,0.08519 -0.91423,0.187501 -0.48009,0.08075 -0.88368,0.142806 -0.8969,0.137936 -0.0442,-0.0163 0.0711,-0.387538 0.20074,-0.646825 0.18675,-0.373682 0.42763,-0.69516 0.8172,-1.09104 0.25773,-0.261894 0.34001,-0.360701 0.32409,-0.38915 -0.0118,-0.02097 -0.0383,-0.03813 -0.0591,-0.03813 -0.0536,0 -0.57893,0.532809 -0.77986,0.791059 -0.32842,0.422101 -0.53725,0.828954 -0.6243,1.216295 l -0.0454,0.20174 -0.9584,0.163112 c -0.52711,0.0897 -0.99011,0.168138 -1.02888,0.174304 l -0.0705,0.01119 z m 2.55679,1.150949 c -0.30281,-0.310754 -0.43955,-0.617617 -0.43955,-0.98652 0,-0.158359 0.004,-0.173853 0.0573,-0.185656 0.1844,-0.04132 1.58785,-0.27009 1.61786,-0.263715 0.0241,0.0051 -0.13059,0.266704 -0.46457,0.785972 -0.27536,0.428065 -0.51693,0.795165 -0.53682,0.815779 -0.0316,0.03272 -0.0615,0.01159 -0.23432,-0.165861 z m 1.85707,1.263548 c -1.22762,-0.09894 -2.71475,-0.777168 -4.256,-1.941033 -0.15749,-0.118985 -0.15906,-0.121342 -0.0893,-0.135402 0.0391,-0.0079 0.44998,-0.07802 0.91314,-0.155885 0.46315,-0.07786 0.87197,-0.147597 0.9085,-0.154961 0.0654,-0.01316 0.0666,-0.0108 0.0835,0.169866 0.0236,0.254235 0.0595,0.389488 0.15907,0.60098 0.17045,0.361793 0.46443,0.643176 0.89045,0.852271 0.34627,0.169965 0.63188,0.236703 1.00797,0.235543 0.49699,-0.0015 0.89587,-0.148638 1.2166,-0.44866 0.1355,-0.126664 0.38682,-0.466848 0.36102,-0.488495 -0.004,-0.0037 -0.0318,-0.01924 -0.0607,-0.03417 -0.0469,-0.02435 -0.0615,-0.01218 -0.13766,0.115215 -0.35138,0.587473 -1.12252,0.856347 -1.89444,0.660535 -0.24567,-0.06233 -0.60753,-0.224359 -0.60753,-0.272048 0,-0.01453 0.0554,-0.109087 0.12332,-0.210204 0.0678,-0.101114 0.31046,-0.476673 0.53922,-0.834561 0.22878,-0.357892 0.42943,-0.6653 0.44593,-0.683131 0.0255,-0.02763 4.5549203,-0.821604 4.6905403,-0.822229 0.0245,-1.13e-4 0.0446,0.01167 0.0446,0.02619 0,0.05849 -0.2449,0.644007 -0.3954603,0.945474 -0.32673,0.654194 -0.62373,1.07585 -1.06849,1.516896 -0.45363,0.44986 -0.89024,0.723873 -1.4389,0.90306 -0.40929,0.133674 -0.96011,0.193079 -1.4352,0.154785 z m -0.24328,-2.974645 c 0.15161,-0.231091 0.96856,-1.526688 1.23763,-1.962702 0.17321,-0.280698 0.33002,-0.526801 0.34846,-0.546895 0.0289,-0.03145 0.0683,-0.0229 0.28313,0.06138 0.292,0.114526 0.75123,0.340192 1.04071,0.511395 0.58027,0.343202 1.6802403,1.172578 1.6181103,1.220064 -0.006,0.0044 -1.0095203,0.177645 -2.2305603,0.384985 -1.22103,0.207339 -2.24846,0.383541 -2.28316,0.391559 l -0.063,0.01453 z m 0.24336,10.5137795 c -1.68371,-0.394091 -2.71646,-1.257357 -3.01285,-2.518407 -0.0383,-0.162935 -0.0797,-0.496945 -0.0919,-0.742233 l -0.0224,-0.445979 0.15612,0.120183 c 0.22047,0.169749 0.35458,0.293321 0.35458,0.326727 0,0.01571 -0.0772,0.02054 -0.17144,0.0106 -0.16103,-0.01689 -0.15396,-0.01178 0.11724,0.08409 0.35024,0.123875 0.85214,0.381071 0.94361,0.483543 0.0654,0.07317 0.0652,0.07439 -0.006,0.05332 -0.1626,-0.04856 -0.74452,-0.168472 -0.8176,-0.168472 -0.1351,0 -0.0536,0.03393 0.30657,0.127528 0.36677,0.09532 1.08551,0.338873 1.33672,0.452943 0.22748,0.103314 0.0674,0.0878 -0.59112,-0.0572 -0.60831,-0.133969 -0.68514,-0.145575 -0.62972,-0.09505 0.0196,0.01728 0.18852,0.06775 0.37712,0.112328 0.18853,0.04458 0.38198,0.10135 0.42982,0.126153 0.0836,0.04342 0.0801,0.04674 -0.0992,0.08976 -0.10231,0.02457 -0.18616,0.06103 -0.18616,0.08103 0,0.02072 0.0271,0.02488 0.0632,0.0098 0.0348,-0.01473 0.28237,-0.03293 0.55033,-0.04065 0.40014,-0.01159 0.51901,-0.0026 0.66525,0.04984 0.098,0.03511 0.18342,0.08085 0.19009,0.101625 0.006,0.02078 -0.0817,0.05795 -0.19618,0.08264 -0.11449,0.02467 -0.25678,0.06873 -0.31632,0.09789 l -0.10821,0.05304 0.12627,-0.02698 c 0.0695,-0.01492 0.26435,-0.02663 0.43306,-0.02618 0.34974,9.47e-4 0.53287,0.07254 0.70328,0.275068 0.0884,0.104886 0.0966,0.137033 0.077,0.299309 -0.0118,0.09998 -0.022,0.405092 -0.0222,0.678008 l -3.1e-4,0.496208 -0.0992,-0.0029 c -0.0546,-0.0016 -0.26164,-0.04098 -0.46012,-0.08745 z m 1.22148,0.176052 c -0.0727,-0.0163 -0.0793,-0.0468 -0.10329,-0.462011 -0.032,-0.556466 -4.9e-4,-0.836408 0.12156,-1.07707 0.17242,-0.340079 0.48234,-0.424217 1.09103,-0.296179 0.14316,0.03012 0.26745,0.04768 0.27611,0.039 0.0302,-0.03022 -0.11861,-0.08609 -0.38816,-0.145634 -0.44627,-0.09862 -0.46271,-0.144789 -0.0972,-0.273236 0.29863,-0.104964 0.78378,-0.09878 1.18068,0.01492 0.0591,0.01689 0.0414,-0.0027 -0.0512,-0.05758 -0.22503,-0.132673 -0.20266,-0.161265 0.14905,-0.190545 0.3827,-0.03187 0.55162,-0.08515 0.28109,-0.08864 -0.15867,-0.002 -1.00955,0.105847 -1.29466,0.164191 -0.15592,0.03189 -0.0921,-0.03558 0.19481,-0.205978 0.38683,-0.229809 0.72175,-0.321828 1.17133,-0.321828 0.21135,0 0.3851603,-0.01571 0.3977303,-0.03609 0.0137,-0.023 -0.0929,-0.03627 -0.2956103,-0.03659 -0.32471,-4.95e-4 -0.48028,-0.02333 -0.48028,-0.0705 0,-0.0586 0.46746,-0.257739 0.7149903,-0.304593 0.23748,-0.04495 0.37538,-0.09357 0.26539,-0.09357 -0.0858,0 -0.0381,-0.0726 0.0933,-0.141902 0.23139,-0.122147 0.0609,-0.08162 -0.29341,0.06971 -0.3372003,0.144062 -0.4554003,0.173146 -0.4554003,0.111994 0,-0.04599 0.22707,-0.239398 0.4455003,-0.379441 0.10231,-0.06561 0.24286,-0.15557 0.31234,-0.199946 0.0695,-0.04436 0.0964,-0.07099 0.0601,-0.05917 -0.0365,0.01178 -0.13216,0.03201 -0.2126,0.04487 l -0.1463,0.02339 0.0858,-0.116001 c 0.0471,-0.0638 0.13471,-0.14744 0.19461,-0.185851 0.22685,-0.145673 0.24944,-0.171517 0.20101,-0.229874 -0.0365,-0.04397 -0.0302,-0.07433 0.0332,-0.163523 0.043,-0.06025 0.062,-0.1095395 0.0426,-0.1095395 -0.0196,0 -0.095,0.08118 -0.1679,0.1804315 -0.0729,0.09925 -0.14866,0.180431 -0.1683,0.180431 -0.0538,0 -0.002,-0.202881 0.11724,-0.4641725 0.11645,-0.253901 0.11743,-0.257587 0.0764,-0.257587 -0.0383,0 -0.17144,0.276963 -0.29828,0.6203465 -0.16986,0.459794 -0.2831903,0.647231 -0.5710203,0.943704 -0.35376,0.364398 -0.47647,0.452093 -1.1949,0.853964 -0.3275,0.183181 -0.78211,0.460768 -1.01027,0.616841 -0.34872,0.23857 -0.4183,0.273825 -0.43682,0.221349 -0.0271,-0.07663 0.0157,-0.238485 0.0978,-0.362438 0.0334,-0.05098 0.24912,-0.276301 0.47941,-0.50073 0.46685,-0.454998 0.63385,-0.555369 1.09862,-0.660378 l 0.29445,-0.06653 -0.24361,-0.0031 c -0.13393,-0.0017 -0.24359,-0.01885 -0.24359,-0.03819 0,-0.01925 0.0528,-0.06235 0.11724,-0.09558 0.15691,-0.08081 0.35185,-0.230966 0.35185,-0.271005 0,-0.05809 -0.24633,0.06895 -0.56543,0.291585 -0.36546,0.254987 -0.42681,0.270334 -0.39914,0.09984 0.0228,-0.140253 -0.006,-0.314485 -0.0501,-0.314485 -0.0177,0 -0.0318,0.04654 -0.0318,0.103412 0,0.198687 -0.23321,0.587338 -0.51835,0.863816 -0.30708,0.297751 -0.41994,0.334482 -0.41994,0.136659 0,-0.193039 0.12077,-0.53292 0.26853,-0.755463 0.18734,-0.2823 0.58065,-0.635526 0.87233,-0.783497 0.23457,-0.119005 0.26122,-0.124209 0.6257,-0.122108 0.27294,0.0016 0.42665,0.02013 0.54308,0.06555 0.2839,0.110738 0.31285,0.104493 0.0949,-0.02052 -0.11665,-0.06683 -0.21399,-0.137268 -0.21653,-0.156533 -0.002,-0.01925 0.0817,-0.04558 0.18715,-0.05846 0.28443,-0.03472 0.27106,-0.06681 -0.0279,-0.06681 -0.31645,0 -0.31105,-0.01453 0.108,-0.2896305 0.15809,-0.103746 0.28728,-0.203221 0.28728,-0.221078 0,-0.04369 -0.18145,0.05245 -0.48719,0.258313 -0.33999,0.2288485 -0.57539,0.3436015 -0.80472,0.3922575 -0.10525,0.02233 -0.19863,0.04057 -0.20766,0.04057 -0.01,0 0.10133,-0.108341 0.24537,-0.240777 0.44692,-0.4110405 0.83953,-0.6261525 1.23759,-0.6780635 0.27037,-0.03527 0.6642903,-0.131494 0.6866903,-0.167765 0.0281,-0.04526 -0.03,-0.04004 -0.20869,0.01885 -0.4049503,0.13338 -0.8936703,0.09505 -0.5844603,-0.04583 0.14572,-0.06636 0.4478603,-0.271337 0.4478603,-0.303759 0,-0.0161 -0.0705,0.01218 -0.1565103,0.06257 -0.27854,0.163249 -0.40263,0.109088 -0.28168,-0.122952 0.0401,-0.07692 0.0831,-0.202178 0.0954,-0.278353 0.0208,-0.12851 0.0177,-0.133576 -0.0326,-0.07013 -0.0302,0.03761 -0.0972,0.195003 -0.14886,0.349774 -0.10663,0.32015 -0.25988,0.511978 -0.53126,0.664942 l -0.17144,0.09662 v -0.08364 c 0,-0.134028 0.21755,-1.115847 0.28886,-1.303586 0.0357,-0.09428 0.0577,-0.171418 0.0489,-0.171418 -0.01,0 -0.0534,0.0432 -0.099,0.09601 -0.10251,0.119143 -0.1465,0.0945 -0.1982,-0.111287 -0.0222,-0.08847 -0.0568,-0.170907 -0.0766,-0.183181 -0.0554,-0.03421 -0.0434,0.05787 0.0379,0.292065 0.0933,0.268605 0.0988,0.464802 0.0157,0.556594 -0.0829,0.09149 -0.11154,0.06881 -0.22199,-0.175345 -0.13353,-0.295248 -0.14571,-0.166077 -0.0157,0.170318 0.17007,0.441159 0.17596,0.53738 0.0493,0.805441 -0.0591,0.125112 -0.1738,0.302009 -0.25488,0.393101 -0.15652,0.1758745 -0.5345,0.4557655 -0.56897,0.4212855 -0.0399,-0.03986 0.12667,-0.301875 0.39612,-0.6229955 0.14983,-0.178644 0.2728,-0.339717 0.27323,-0.357957 4.4e-4,-0.01826 -0.1192,0.08324 -0.26601,0.22555 -0.14669,0.142295 -0.28365,0.258714 -0.30423,0.258714 -0.0249,0 -0.0263,-0.03873 -0.004,-0.117041 0.0177,-0.06439 0.033,-0.14964 0.0324,-0.189466 -0.002,-0.142314 -0.099,0.04744 -0.23721,0.46506 -0.17713,0.5351255 -0.2753,0.7213855 -0.4918,0.9322585 -0.23193,0.225899 -0.26378,0.198846 -0.25765,-0.218757 0.008,-0.512523 0.20136,-1.0961415 0.46726,-1.4067875 0.0923,-0.107811 0.19068,-0.169807 0.38537,-0.242917 0.14375,-0.05398 0.27691,-0.11223 0.29577,-0.129393 0.0542,-0.04937 -0.10153,-0.03704 -0.23739,0.01885 -0.17713,0.0728 -0.35626,0.105848 -0.35626,0.06571 0,-0.05035 0.37056,-0.661105 0.62858,-1.035986 0.30413,-0.441885 0.29804,-0.430628 0.20567,-0.381186 -0.0422,0.02256 -0.16751,0.170573 -0.27841,0.328932 -0.19441,0.277462 -0.30458,0.381711 -0.35261,0.333675 -0.0118,-0.01257 -0.024,-0.145948 -0.0253,-0.296458 -0.004,-0.477462 -0.0564,-0.44375 -0.0811,0.05269 -0.0271,0.544414 -0.0575,0.673354 -0.20796,0.880903 -0.0609,0.08391 -0.19956,0.31757 -0.30838,0.519219 l -0.19785,0.366631 0.0157,-0.487188 c 0.0177,-0.526843 0.0644,-0.752503 0.24573,-1.165636 0.0701,-0.159596 0.11724,-0.335497 0.12706,-0.473423 l 0.0157,-0.21947 -0.12097,0.342836 c -0.0666,0.188562 -0.1628,0.423936 -0.21419,0.52306 l -0.0933,0.180215 -0.0212,-0.270443 c -0.0118,-0.148736 -0.033,-0.416601 -0.0473,-0.595236 l -0.0263,-0.324791 -0.0281,0.288703 c -0.0157,0.15879 -0.0414,0.467339 -0.0577,0.685672 l -0.0294,0.396967 -0.12372,-0.252616 c -0.11469,-0.2341 -0.1247,-0.282729 -0.13746,-0.663224 -0.0157,-0.460207 -0.0764,-0.486748 -0.0772,-0.0336 -3.2e-4,0.161972 -0.0177,0.287746 -0.0401,0.302034 -0.0218,0.01355 -0.12333,-0.05616 -0.22554,-0.154745 -0.18852,-0.18163 -0.3904,-0.334622 -0.44175,-0.334622 -0.0157,0 0.11782,0.15021 0.29604,0.333813 0.56802,0.584912 0.73567,0.941526 0.73567,1.564954 0,0.370156 -0.002,0.3795 -0.079,0.368261 -0.17811,-0.02602 -0.519,-0.651571 -0.6453,-1.18439 -0.0448,-0.188562 -0.0948,-0.358264 -0.11154,-0.37712 -0.0505,-0.05705 -0.0342,0.24474 0.0234,0.434539 0.0693,0.228834 0.0683,0.300459 -0.006,0.328712 -0.12823,0.04921 -0.3501,-0.334199 -0.49994,-0.864034 -0.10408,-0.367929 -0.22322,-0.60216 -0.17909,-0.35212 0.0118,0.06948 0.0524,0.223744 0.0893,0.342836 0.0854,0.275486 0.12057,0.451098 0.0903,0.451098 -0.0138,0 -0.11586,-0.07081 -0.22843,-0.157357 -0.25996,-0.19982 -0.55893,-0.383963 -0.62332,-0.383963 -0.0273,0 0.0583,0.07256 0.19069,0.161245 0.3986,0.267406 0.36913,0.305607 -0.15357,0.199082 -0.2019,-0.04114 -0.37512,-0.06677 -0.38494,-0.05693 -0.01,0.0098 0.0287,0.02895 0.0856,0.0425 0.81432,0.193707 1.11495,0.318853 1.31593,0.547752 0.0601,0.06842 0.1027,0.130984 0.0945,0.139055 -0.0644,0.06443 -1.34901,-0.234596 -1.69493,-0.394538 -0.26505,-0.122559 -0.27299,-0.07184 -0.01,0.05764 0.10919,0.05355 0.1985,0.112976 0.1985,0.132064 0,0.02121 -0.1194,0.02629 -0.30676,0.01316 -0.19383,-0.01375 -0.30675,-0.0084 -0.30675,0.01434 0,0.02068 0.19501,0.04591 0.46014,0.05956 0.82472,0.0424 1.4408,0.169807 1.82613,0.377646 0.21399,0.11543 0.52486,0.47887 0.68281,0.7982665 0.0943,0.190702 0.11625,0.280855 0.12273,0.50523 0.01,0.312953 -0.008,0.399418 -0.0799,0.399418 -0.0874,0 -0.17105,-0.223034 -0.19344,-0.514947 -0.0271,-0.353703 -0.0901,-0.381045 -0.10447,-0.0454 -0.006,0.138388 -0.0294,0.26306 -0.052,0.277046 -0.0226,0.01394 -0.0878,0.0012 -0.14492,-0.02824 -0.0572,-0.02952 -0.12883,-0.04864 -0.15946,-0.04248 -0.033,0.0067 0.0515,0.08462 0.20753,0.191645 0.42058,0.288422 0.63139,0.668729 0.38637,0.696978 -0.10742,0.01237 -0.51582,-0.205429 -0.77245,-0.412067 -0.16574,-0.133478 -0.31768,-0.414345 -0.28306,-0.523394 0.0118,-0.03871 0.10231,-0.170004 0.20001,-0.291764 0.0978,-0.121754 0.17772,-0.236591 0.17772,-0.255178 0,-0.01866 -0.0921,0.05031 -0.20448,0.153095 -0.25394,0.232079 -0.29039,0.199858 -0.22592,-0.199757 0.024,-0.1487355 0.0346,-0.2795255 0.0234,-0.2906435 -0.0493,-0.04929 -0.11036,0.17291 -0.14571,0.5293195 l -0.0383,0.386561 -0.13884,-0.167235 c -0.23587,-0.283999 -0.32805,-0.5109835 -0.30985,-0.7628655 0.008,-0.118985 0.01,-0.216347 0.004,-0.216347 -0.006,0 -0.0346,0.05683 -0.0636,0.12631 -0.0664,0.159046 -0.11193,0.159851 -0.16377,0.0028 -0.0424,-0.128431 -0.14532,-0.247736 -0.14532,-0.168433 0,0.02298 0.0257,0.08108 0.0573,0.129138 0.0609,0.09285 0.0436,0.162718 -0.0401,0.162718 -0.0279,0 -0.13315,-0.07307 -0.23363,-0.162404 -0.10055,-0.08931 -0.20107,-0.162385 -0.22334,-0.162385 -0.0646,0 0.0787,0.139782 0.32121,0.313226 0.27464,0.196384 0.42685,0.3673885 0.37402,0.4202125 -0.0491,0.04907 -0.32174,-0.140214 -0.72453,-0.5028695 -0.30759,-0.276939 -0.67279,-0.544156 -0.70278,-0.514187 -0.01,0.0088 0.0929,0.09952 0.22611,0.201631 0.13314,0.102096 0.34765,0.293938 0.47667,0.42632 0.27891,0.2862015 0.25572,0.2847765 -0.3947,-0.02429 -0.24687,-0.117297 -0.4652,-0.207811 -0.48521,-0.201144 -0.0601,0.02005 0.33459,0.228788 0.89689,0.4743045 0.68424,0.298753 0.88441,0.422377 1.12291,0.693488 0.10742,0.122146 0.1954,0.231755 0.1954,0.243592 0,0.104827 -0.61967,-0.196358 -1.06461,-0.517435 -0.36899,-0.266282 -0.5549,-0.379726 -0.58045,-0.354185 -0.008,0.0079 0.0917,0.09073 0.22146,0.184026 0.22459,0.161579 0.28031,0.270223 0.11232,0.219128 -0.043,-0.01316 -0.31096,-0.128745 -0.59549,-0.257029 -0.28453,-0.128274 -0.52555,-0.225017 -0.5356,-0.214961 -0.0322,0.03217 0.24981,0.192372 0.5516,0.31336 0.16103,0.06451 0.33145,0.147185 0.37891,0.183672 0.0803,0.06176 0.0813,0.06642 0.0138,0.06716 -0.0397,4.42e-4 -0.19946,-0.02356 -0.35503,-0.05334 -0.32673,-0.06253 -0.38476,-0.06596 -0.38476,-0.02272 0,0.01728 0.23141,0.06689 0.51425,0.110227 0.59338,0.09094 0.9792,0.187481 1.19354,0.298639 l 0.15063,0.07816 -0.14434,0.03554 c -0.0982,0.02419 -0.28149,0.02194 -0.57392,-0.0071 -0.39204,-0.0389 -0.49722,-0.03617 -0.44939,0.01159 0.0367,0.03666 0.53354,0.08965 0.84696,0.09031 0.18086,3.93e-4 0.41636,0.0165 0.52329,0.03562 0.29531,0.05304 1.05726,0.450496 1.28604,0.670847 l 0.1895,0.182474 0.008,0.250572 c 0.0157,0.511654 0.002,0.544475 -0.20098,0.506456 -0.20125,-0.03774 -0.4109,-0.27476 -0.65101,-0.735964 -0.12313,-0.236594 -0.22577,-0.394491 -0.24431,-0.375969 -0.0177,0.01846 0.006,0.114056 0.0591,0.227466 0.0501,0.107537 0.0911,0.215827 0.0913,0.240639 5.9e-4,0.07551 -0.0903,0.05057 -0.18282,-0.05019 -0.14925,-0.162502 -0.61088,-0.517044 -0.79441,-0.610049 -0.25857,-0.131023 -0.29461,-0.107516 -0.0685,0.04468 0.2092,0.140803 0.91422,0.804538 0.88531,0.833458 -0.01,0.0094 -0.28148,-0.11327 -0.60476,-0.27245 -0.602,-0.296432 -1.37883,-0.787329 -1.79729,-1.135722 l -0.23512,-0.195769 -0.0829,-0.538485 c -0.22939,-1.4919765 -0.85951,-4.2252735 -1.14649,-4.9731315 -0.0118,-0.03281 0.15788,0.06981 0.37906,0.228073 1.67691,1.200383 3.28177,1.805004 4.56195,1.718696 1.47388,-0.09937 2.63584,-0.971085 3.4789503,-2.609926 0.10958,-0.21316 0.18833,-0.346964 0.17478,-0.297343 -0.0519,0.191055 -0.0664,1.690604 -0.022,2.277233 0.13648,1.801287 0.5139,3.165109 1.01569,3.6691355 0.16672,0.167431 0.20759,0.182533 0.95256,0.351761 1.17159,0.266127 1.9386,0.650886 2.14421,1.075611 0.0986,0.203595 0.0945,0.360324 -0.0157,0.59676 -0.22012,0.472838 -0.99687,1.074358 -2.05643,1.592487 -1.41839,0.693609 -2.3027203,0.895888 -4.0238103,0.920408 -0.50612,0.0073 -0.9552,0.0051 -0.99791,-0.0043 z m 3.4880003,-4.091391 c 0.0467,-0.03014 0.0458,-0.03505 -0.008,-0.03554 -0.0336,-2.87e-4 -0.0711,0.01571 -0.0833,0.03554 -0.0283,0.04568 0.0196,0.04568 0.0901,0 z" />
  </g>
</svg>
