<?xml version="1.0" encoding="UTF-8" standalone="no"?>
<svg
   xmlns:dc="http://purl.org/dc/elements/1.1/"
   xmlns:cc="http://creativecommons.org/ns#"
   xmlns:rdf="http://www.w3.org/1999/02/22-rdf-syntax-ns#"
   xmlns:svg="http://www.w3.org/2000/svg"
   xmlns="http://www.w3.org/2000/svg"
   xmlns:sodipodi="http://sodipodi.sourceforge.net/DTD/sodipodi-0.dtd"
   xmlns:inkscape="http://www.inkscape.org/namespaces/inkscape"
   width="128"
   height="128"
   viewBox="0 0 33.866667 33.866667"
   version="1.1"
   id="svg8"
   sodipodi:docname="logo_colors.svg"
   inkscape:version="1.0 (4035a4fb49, 2020-05-01)">
  <defs
     id="defs2">
    <pattern
       y="0"
       x="0"
       height="6"
       width="6"
       patternUnits="userSpaceOnUse"
       id="EMFhbasepattern" />
    <pattern
       y="0"
       x="0"
       height="6"
       width="6"
       patternUnits="userSpaceOnUse"
       id="EMFhbasepattern-9" />
    <pattern
       y="0"
       x="0"
       height="6"
       width="6"
       patternUnits="userSpaceOnUse"
       id="EMFhbasepattern-3" />
  </defs>
  <sodipodi:namedview
     id="base"
     pagecolor="#ffffff"
     bordercolor="#666666"
     borderopacity="1.0"
     inkscape:pageopacity="0.0"
     inkscape:pageshadow="2"
     inkscape:zoom="1.6523438"
     inkscape:cx="50.157577"
     inkscape:cy="102.34954"
     inkscape:document-units="mm"
     inkscape:current-layer="layer10"
     inkscape:document-rotation="0"
     showgrid="true"
     units="px"
     width="128px"
     inkscape:window-width="1301"
     inkscape:window-height="1040"
     inkscape:window-x="458"
     inkscape:window-y="0"
     inkscape:window-maximized="0">
    <inkscape:grid
       type="xygrid"
       id="grid1971" />
  </sodipodi:namedview>
  <metadata
     id="metadata5">
    <rdf:RDF>
      <cc:Work
         rdf:about="">
        <dc:format>image/svg+xml</dc:format>
        <dc:type
           rdf:resource="http://purl.org/dc/dcmitype/StillImage" />
        <dc:title></dc:title>
      </cc:Work>
    </rdf:RDF>
  </metadata>
  <g
     style="display:none"
     inkscape:label="box"
     id="layer4"
     inkscape:groupmode="layer" />
  <g
     inkscape:label="eye"
     inkscape:groupmode="layer"
     id="layer1"
     style="display:none">
    <path
       inkscape:connector-curvature="0"
       style="display:inline;fill:none;stroke:#000000;stroke-width:0.199441px;stroke-linecap:butt;stroke-linejoin:miter;stroke-opacity:1"
       d="M 5.0414259,13.30505 C 18.103989,23.523553 21.158702,10.69666 21.382355,10.509892 11.745266,1.8832814 6.037337,9.4540891 5.0414259,13.30505 Z"
       id="path4286" />
  </g>
  <g
     style="display:inline"
     inkscape:label="eye_color"
     id="layer10"
     inkscape:groupmode="layer">
    <path
       transform="scale(0.26458333)"
       id="path869"
       d="m 48.249712,64.397395 c -6.654667,-1.089507 -13.657073,-4.055639 -21.103655,-8.939246 -2.665054,-1.747793 -7.540516,-5.241723 -7.540516,-5.403806 0,-0.505638 1.632446,-4.448985 2.701374,-6.525456 4.579215,-8.895456 12.130433,-15.371483 20.356809,-17.458274 11.114819,-2.819506 23.134755,1.462838 36.839104,13.124672 l 0.73435,0.624901 -1.030111,2.656741 c -2.269931,5.854348 -5.318545,10.878015 -8.865217,14.608573 -2.889224,3.039026 -7.658367,5.852537 -11.686629,6.894419 -2.693645,0.696691 -7.517872,0.890243 -10.405509,0.417476 z"
       style="display:inline;fill:#f2f2f2;stroke-width:0.213971" />
  </g>
  <g
     inkscape:groupmode="layer"
     id="layer2"
     inkscape:label="christmas stocking"
     style="display:none">
    <path
       inkscape:connector-curvature="0"
       style="display:inline;fill:none;stroke:#000000;stroke-width:0.199441px;stroke-linecap:butt;stroke-linejoin:miter;stroke-opacity:1"
       d="m 5.0414259,13.30505 c 0.8439973,1.591602 2.7247042,10.317178 2.5333131,11.938515 0.6595336,7.182727 11.442482,6.337525 14.667665,5.262464 3.225182,-1.075062 11.825671,-5.375305 1.171768,-7.385392 -2.179111,-0.411134 -3.061441,-9.311823 -2.031817,-12.610745 z"
       id="path4284" />
  </g>
  <g
     style="display:inline"
     inkscape:label="colors"
     id="layer5"
     inkscape:groupmode="layer">
    <path
       inkscape:connector-curvature="0"
       id="path192"
       d="M 0,16.933334 V 0 H 16.933334 33.866667 V 16.933334 33.866667 H 16.933334 0 Z m 18.865819,15.807894 c 2.012354,-0.07547 3.822553,-0.384027 5.334318,-0.909282 1.691997,-0.587873 3.919909,-1.695566 5.187131,-2.578981 0.80238,-0.559363 1.55928,-1.249425 1.915467,-1.746331 0.497755,-0.6944 0.639132,-1.456212 0.378437,-2.039243 -0.30679,-0.686119 -1.070888,-1.292168 -2.273817,-1.803496 -0.851664,-0.362014 -1.913259,-0.668473 -3.776353,-1.090153 -0.576027,-0.130373 -0.81383,-0.261103 -1.095594,-0.602296 -0.847567,-1.026327 -1.496241,-3.202889 -1.896131,-6.362283 -0.127168,-1.004708 -0.180566,-2.036819 -0.180613,-3.490994 -3.9e-5,-1.486353 0.05953,-2.7684161 0.158776,-3.4168099 C 22.71583,8.0585224 22.88283,7.3032709 22.938973,7.2471964 23.039716,7.1465724 22.977805,7.0255012 22.728431,6.835471 22.590333,6.7302372 22.224248,6.4369619 21.914908,6.1837493 20.859804,5.3200835 19.64237,4.4756124 18.580467,3.8708206 18.049553,3.5684457 17.021364,3.0665281 16.665893,2.9362081 16.345699,2.8188215 16.069594,2.6852849 16.069594,2.6478113 c 0,-0.017501 0.160123,-0.2999065 0.355833,-0.6275711 C 16.874805,1.2678638 16.998772,1.0231971 16.969371,0.94667072 16.936041,0.85992062 16.78868,0.82133186 16.746244,0.88824162 16.727144,0.91834182 16.488195,1.304107 16.215226,1.7454973 15.787631,2.4369179 15.705651,2.5474685 15.623081,2.5440058 15.570371,2.5417958 15.310305,2.4838588 15.045157,2.4152572 14.018064,2.1495199 12.630806,2.0302752 11.650454,2.1234586 9.3685635,2.3403549 7.3772023,3.3306516 5.6214359,5.1216665 4.6724208,6.089733 4.0114319,7.0026682 3.3930631,8.1994154 3.0016715,8.9568882 2.8442398,9.3158387 2.5906467,10.02896 l -0.1853382,0.521184 0.1377904,0.292464 c 0.7335636,1.557006 2.326575,8.312359 2.8367164,12.02943 0.08703,0.63414 0.1843342,1.651821 0.2244401,2.347393 0.06,1.0406 0.2815072,1.910051 0.6974634,2.737665 0.3656074,0.727436 0.6657196,1.150247 1.2284566,1.730696 1.5943858,1.64458 3.9069916,2.599388 7.2538506,2.994904 0.298292,0.03525 0.578505,0.06983 0.622696,0.07686 0.1989,0.0316 2.444767,0.0197 3.459097,-0.01832 z"
       style="display:inline;fill:#5fbcd3;stroke-width:0.0401502" />
    <path
       inkscape:connector-curvature="0"
       id="path40"
       d="M 15.638512,31.054274 C 14.549475,30.982848 13.148793,30.722346 12.232449,30.420809 10.1581,29.738209 8.7495012,28.556601 8.1118988,26.964263 7.8440519,26.295349 7.7444067,25.7991 7.701635,24.921095 7.6589084,24.044044 7.5887518,23.451937 7.3776476,22.186773 6.9263504,19.482111 6.0710275,15.821233 5.4941277,14.125097 5.4182087,13.90189 5.3560938,13.712999 5.3560938,13.705338 c 0,-0.0076 0.1617366,0.109194 0.359414,0.259672 0.5252625,0.399847 1.6486788,1.141517 2.3078739,1.523639 3.7941633,2.199391 7.0180613,2.467354 9.5477593,0.793587 1.231077,-0.814537 2.192739,-1.973953 3.0804,-3.713845 l 0.305131,-0.598082 -0.02748,0.276038 c -0.206245,2.072349 -0.04945,4.922642 0.391479,7.116369 0.392664,1.953611 1.086311,3.435067 1.759398,3.757632 0.107519,0.05153 0.412868,0.137196 0.678554,0.190376 1.730743,0.346425 3.176919,0.861712 3.933349,1.40149 0.345267,0.246377 0.507051,0.429778 0.650973,0.737954 0.492959,1.05556 -0.767354,2.428948 -3.503172,3.817481 -2.222134,1.127816 -3.8124,1.571881 -6.344056,1.771515 -0.540398,0.04261 -2.29629,0.0519 -2.857213,0.01512 z"
       style="display:inline;fill:#ff5555;stroke-width:0.0460063" />
    <path
       inkscape:connector-curvature="0"
       id="path190"
       d="M 11.377083,16.139583 C 11.008051,16.084163 10.687991,16.017058 10.423607,15.939685 10.150936,15.859885 10.100835,15.825466 9.8874513,15.57132 9.0598644,14.58564 8.5462778,13.271351 8.464565,11.930098 8.43324,11.415928 8.39152,11.347059 8.1662444,11.437655 7.8395176,11.56905 7.8487468,11.57375 7.8817704,11.29277 7.9499284,10.712849 8.29866,10.073012 8.8469886,9.5218323 9.0522995,9.3154536 9.2367269,9.1465985 9.2568271,9.1465985 c 0.0201,0 0.048617,0.2987787 0.063372,0.6639528 0.016042,0.3970447 0.063672,0.8358597 0.1184821,1.0915837 0.050411,0.235197 0.091922,0.430206 0.092247,0.433355 3.27e-4,0.0031 -0.086294,-0.0041 -0.1924882,-0.01604 -0.301116,-0.03394 -0.3257363,0.03112 -0.1895802,0.500965 0.2001997,0.690847 0.5656474,1.320313 1.0880122,1.874047 0.33297,0.352966 0.438019,0.406649 0.55686,0.284573 0.128768,-0.132273 3.239163,-5.0122965 3.239163,-5.0820526 0,-0.068355 -0.238874,-0.2341265 -1.450289,-1.0064609 l -0.797589,-0.5085009 -0.21522,0.053973 c -0.37327,0.093608 -0.624682,-0.098402 -0.616194,-0.470604 0.0081,-0.3543637 0.258235,-0.6410619 0.599258,-0.6868028 0.237514,-0.031857 0.442663,0.1503606 0.490284,0.4354785 l 0.03353,0.200773 1.101897,0.7093521 c 0.606043,0.3901434 1.135621,0.7099834 1.176839,0.7107555 0.08204,0.00155 0.667785,-0.876635 0.667785,-1.00117 0,-0.039936 -0.03972,-0.1399268 -0.08826,-0.2222025 -0.142731,-0.2419122 -0.239542,-0.6921321 -0.206204,-0.958958 0.06565,-0.5254124 0.432835,-1.0330558 0.917252,-1.2681121 0.219161,-0.1063448 0.311896,-0.1239388 0.660106,-0.1252371 0.353719,-0.00131 0.437473,0.014376 0.660067,0.1236865 0.339469,0.1667062 0.607111,0.4418041 0.772894,0.7944244 0.358241,0.7619788 0.01774,1.6944843 -0.757754,2.0752392 -0.195757,0.096112 -0.289392,0.1109005 -0.718954,0.1135466 l -0.493886,0.00304 -0.284283,0.4471978 c -0.156355,0.2459586 -0.278462,0.4856665 -0.271348,0.5326836 0.01793,0.1185288 2.229651,1.5287787 2.328026,1.4844117 0.03885,-0.01752 0.15628,-0.04054 0.260955,-0.05116 0.540808,-0.05485 0.644734,0.760269 0.136444,1.070177 -0.334887,0.204183 -0.754392,0.02212 -0.754392,-0.327407 0,-0.09031 -0.03259,-0.182685 -0.07878,-0.223287 -0.200361,-0.176145 -2.1526,-1.3850609 -2.235689,-1.3844423 -0.07427,5.652e-4 -0.37934,0.4472546 -1.466692,2.1476023 -0.755106,1.180798 -1.492563,2.336419 -1.638792,2.568047 l -0.265873,0.421141 0.09065,0.09065 c 0.103754,0.103754 0.714836,0.319653 1.141963,0.403461 0.374286,0.07344 1.392767,0.06612 1.684861,-0.01212 0.263824,-0.07066 0.310228,-0.183467 0.16143,-0.392434 l -0.09239,-0.129746 0.438123,-0.100576 c 0.429641,-0.09863 1.20088,-0.365271 1.492095,-0.515865 0.08099,-0.04188 0.156873,-0.06654 0.168624,-0.05479 0.01175,0.01175 -0.04181,0.210742 -0.119018,0.442204 -0.237627,0.712359 -0.616007,1.25716 -1.142137,1.644475 -0.145164,0.106863 -0.280904,0.194297 -0.301643,0.194297 -0.02074,0 -0.04383,-0.104258 -0.05132,-0.231686 -0.0194,-0.330387 -0.07976,-0.352396 -0.50053,-0.182504 -0.389973,0.157459 -1.116196,0.346787 -1.583709,0.412877 -0.299262,0.04231 -1.267209,0.05332 -1.507961,0.01717 z M 16.7116,7.2170843 c 0.220128,-0.1000021 0.44383,-0.3462156 0.517573,-0.5696591 0.08552,-0.2591334 0.03844,-0.6563356 -0.103152,-0.8703 -0.506648,-0.7655969 -1.713276,-0.4652021 -1.778961,0.4428794 -0.02305,0.3187023 0.04567,0.542204 0.231936,0.7543536 0.273509,0.3115096 0.754358,0.4145594 1.132604,0.2427261 z"
       style="display:inline;fill:#004455;stroke-width:0.0450138" />
  </g>
  <g
     inkscape:groupmode="layer"
     id="layer3"
     inkscape:label="anchor"
     style="display:none">
    <path
       inkscape:connector-curvature="0"
       style="fill:none;stroke:#000000;stroke-width:0.24542201px;stroke-linecap:butt;stroke-linejoin:miter;stroke-opacity:1"
       d="m 10.717092,4.7980873 c -4.0015208,3.526148 -3.7502105,6.5170797 -1.8212284,8.0714677 1.9289824,1.554388 5.1760404,1.599203 6.4468204,-0.91294"
       id="path4282" />
    <path
       inkscape:connector-curvature="0"
       style="fill:none;stroke:#000000;stroke-width:0.24542201px;stroke-linecap:butt;stroke-linejoin:miter;stroke-opacity:1"
       d="M 16.88923,0.94125683 C 14.594461,4.8784381 9.0798746,13.359091 9.2927516,12.993851"
       id="path1995" />
  </g>
  <g
     style="display:none"
     inkscape:label="anchor 1"
     id="layer7"
     inkscape:groupmode="layer">
    <g
       transform="matrix(0.0272682,0.01745175,-0.01745175,0.0272682,12.84268,1.8854914)"
       id="g107"
       style="display:inline;fill:#5fbcd3">
      <g
         style="fill:#5fbcd3"
         id="g50">
        <path
           style="fill:#5fbcd3"
           inkscape:connector-curvature="0"
           d="m 187.74,78.652 c -14.697,0 -26.655,-11.957 -26.655,-26.654 0,-14.698 11.958,-26.655 26.655,-26.655 14.698,0 26.655,11.957 26.655,26.655 0,14.697 -11.957,26.654 -26.655,26.654 z m 0,-45.309 c -10.286,0 -18.655,8.369 -18.655,18.655 0,10.286 8.369,18.654 18.655,18.654 10.287,0 18.655,-8.368 18.655,-18.654 0,-10.286 -8.368,-18.655 -18.655,-18.655 z"
           id="path46" />
        <path
           style="fill:#5fbcd3"
           inkscape:connector-curvature="0"
           d="m 186.24,372.479 c -0.298,0 -0.596,-0.033 -0.889,-0.1 -38.095,-8.683 -65.694,-29.495 -82.14,-45.426 C 91.462,315.571 83.658,305.142 79.6,299.175 l -7.074,10.099 c -0.749,1.069 -1.973,1.705 -3.276,1.705 -0.015,0 -0.03,0 -0.046,0 -1.321,-0.016 -2.549,-0.682 -3.282,-1.781 -12.837,-19.252 -17.461,-42.672 -13.37,-67.729 3.07,-18.805 9.875,-31.807 10.163,-32.351 0.683,-1.289 2.012,-2.104 3.471,-2.128 0.021,-0.001 0.043,-0.001 0.064,-0.001 1.434,0 2.76,0.768 3.473,2.016 18.548,32.459 38.716,51.604 46.788,57.192 1.19,0.823 1.844,2.226 1.709,3.666 -0.136,1.44 -1.037,2.696 -2.359,3.283 l -8.991,3.985 c 16.622,15.09 36.793,24.968 58.871,28.819 V 151.993 h -63.205 c -4.296,6.236 -10.842,9.894 -17.908,9.894 -12.553,0 -22.766,-11.616 -22.766,-25.894 0,-14.277 10.212,-25.893 22.766,-25.893 7.065,0 13.611,3.657 17.908,9.894 h 63.205 V 99.113 C 147.428,90.58 135.742,72.373 135.742,51.998 135.742,23.326 159.069,0 187.74,0 c 28.672,0 51.998,23.326 51.998,51.998 0,21.533 -13.144,40.631 -32.998,48.404 v 19.592 h 63.204 c 4.297,-6.236 10.843,-9.894 17.908,-9.894 12.553,0 22.765,11.615 22.765,25.893 0,14.277 -10.212,25.894 -22.765,25.894 -7.065,0 -13.611,-3.657 -17.908,-9.894 H 206.74 v 153.959 c 22.078,-3.852 42.248,-13.729 58.871,-28.819 l -8.991,-3.985 c -1.324,-0.588 -2.228,-1.845 -2.362,-3.287 -0.134,-1.442 0.522,-2.845 1.716,-3.666 8.067,-5.584 28.235,-24.73 46.783,-57.189 0.713,-1.248 2.04,-2.016 3.473,-2.016 0.022,0 0.044,0 0.065,0.001 1.458,0.023 2.788,0.839 3.471,2.128 0.288,0.544 7.092,13.546 10.163,32.351 4.091,25.057 -0.532,48.477 -13.37,67.729 -0.733,1.1 -1.961,1.766 -3.282,1.781 -0.015,0 -0.031,0 -0.046,0 -1.304,0 -2.527,-0.636 -3.276,-1.705 l -7.074,-10.099 c -4.059,5.968 -11.863,16.398 -23.612,27.778 -16.445,15.931 -44.044,36.743 -82.139,45.426 -0.294,0.066 -0.592,0.099 -0.89,0.099 z M 79.749,287.99 c 0.06,0 0.12,10e-4 0.18,0.004 1.367,0.061 2.608,0.817 3.289,2.005 0.335,0.581 34.26,58.277 103.021,74.375 68.89,-16.127 102.686,-73.792 103.021,-74.375 0.682,-1.188 1.922,-1.943 3.289,-2.005 1.367,-0.075 2.67,0.581 3.456,1.701 l 7.007,10.004 c 17.898,-31.707 8.232,-65.716 2.694,-79.955 -16.254,26.67 -31.861,41.966 -39.801,48.77 l 8.415,3.729 c 1.206,0.535 2.07,1.629 2.312,2.925 0.241,1.297 -0.172,2.629 -1.105,3.561 -19.722,19.722 -44.706,32.12 -72.251,35.855 -1.147,0.154 -2.3,-0.191 -3.169,-0.951 -0.87,-0.76 -1.369,-1.858 -1.369,-3.013 V 147.993 c 0,-2.209 1.791,-4 4,-4 h 69.418 c 1.445,0 2.777,0.779 3.485,2.038 2.77,4.919 7.333,7.855 12.208,7.855 8.142,0 14.765,-8.027 14.765,-17.894 0,-9.867 -6.624,-17.893 -14.765,-17.893 -4.875,0 -9.438,2.937 -12.208,7.855 -0.709,1.259 -2.041,2.038 -3.485,2.038 H 202.74 c -2.209,0 -4,-1.791 -4,-4 v -26.4 c 0,-1.728 1.109,-3.26 2.75,-3.8 18.092,-5.949 30.248,-22.744 30.248,-41.794 C 231.738,27.737 212.001,8 187.74,8 c -24.26,0 -43.997,19.737 -43.997,43.998 0,18.013 10.794,34.022 27.5,40.787 1.51,0.612 2.499,2.078 2.499,3.708 v 27.501 c 0,2.209 -1.791,4 -4,4 h -69.419 c -1.445,0 -2.777,-0.779 -3.486,-2.038 -2.769,-4.919 -7.332,-7.855 -12.207,-7.855 -8.142,0 -14.766,8.026 -14.766,17.893 0,9.867 6.624,17.894 14.766,17.894 4.875,0 9.438,-2.937 12.207,-7.855 0.709,-1.259 2.041,-2.038 3.486,-2.038 h 69.419 c 2.209,0 4,1.791 4,4 v 162.626 c 0,1.154 -0.499,2.253 -1.369,3.013 -0.87,0.759 -2.021,1.104 -3.169,0.951 -27.546,-3.734 -52.53,-16.133 -72.252,-35.855 -0.932,-0.932 -1.345,-2.264 -1.104,-3.561 0.242,-1.296 1.106,-2.39 2.312,-2.925 l 8.414,-3.729 c -7.939,-6.802 -23.542,-22.096 -39.794,-48.756 -5.521,14.262 -15.16,48.303 2.688,79.94 l 7.006,-10.003 c 0.75,-1.072 1.974,-1.706 3.275,-1.706 z"
           id="path48" />
      </g>
      <g
         style="fill:#5fbcd3"
         id="g52" />
      <g
         style="fill:#5fbcd3"
         id="g54" />
      <g
         style="fill:#5fbcd3"
         id="g56" />
      <g
         style="fill:#5fbcd3"
         id="g58" />
      <g
         style="fill:#5fbcd3"
         id="g60" />
      <g
         style="fill:#5fbcd3"
         id="g62" />
      <g
         style="fill:#5fbcd3"
         id="g64" />
      <g
         style="fill:#5fbcd3"
         id="g66" />
      <g
         style="fill:#5fbcd3"
         id="g68" />
      <g
         style="fill:#5fbcd3"
         id="g70" />
      <g
         style="fill:#5fbcd3"
         id="g72" />
      <g
         style="fill:#5fbcd3"
         id="g74" />
      <g
         style="fill:#5fbcd3"
         id="g76" />
      <g
         style="fill:#5fbcd3"
         id="g78" />
      <g
         style="fill:#5fbcd3"
         id="g80" />
    </g>
  </g>
  <g
     style="display:none"
     inkscape:label="anchor 2"
     id="layer8"
     inkscape:groupmode="layer" />
</svg>
