<?xml version="1.0" encoding="UTF-8" standalone="no"?>
<svg
   xmlns:dc="http://purl.org/dc/elements/1.1/"
   xmlns:cc="http://creativecommons.org/ns#"
   xmlns:rdf="http://www.w3.org/1999/02/22-rdf-syntax-ns#"
   xmlns:svg="http://www.w3.org/2000/svg"
   xmlns="http://www.w3.org/2000/svg"
   xmlns:sodipodi="http://sodipodi.sourceforge.net/DTD/sodipodi-0.dtd"
   xmlns:inkscape="http://www.inkscape.org/namespaces/inkscape"
   inkscape:version="0.92.4 (5da689c313, 2019-01-14)"
   sodipodi:docname="logo_colors2.svg"
   id="svg8"
   version="1.1"
   viewBox="0 0 33.866667 33.866667"
   height="128"
   width="128">
  <defs
     id="defs2">
    <pattern
       id="EMFhbasepattern"
       patternUnits="userSpaceOnUse"
       width="6"
       height="6"
       x="0"
       y="0" />
    <pattern
       id="EMFhbasepattern-9"
       patternUnits="userSpaceOnUse"
       width="6"
       height="6"
       x="0"
       y="0" />
    <pattern
       id="EMFhbasepattern-3"
       patternUnits="userSpaceOnUse"
       width="6"
       height="6"
       x="0"
       y="0" />
  </defs>
  <sodipodi:namedview
     inkscape:window-maximized="0"
     inkscape:window-y="72"
     inkscape:window-x="284"
     inkscape:window-height="873"
     inkscape:window-width="1218"
     width="128px"
     units="px"
     showgrid="true"
     inkscape:document-rotation="0"
     inkscape:current-layer="layer1"
     inkscape:document-units="mm"
     inkscape:cy="48.687087"
     inkscape:cx="0.26846053"
     inkscape:zoom="2.3367669"
     inkscape:pageshadow="2"
     inkscape:pageopacity="0.0"
     borderopacity="1.0"
     bordercolor="#666666"
     pagecolor="#ffffff"
     id="base">
    <inkscape:grid
       id="grid1971"
       type="xygrid" />
  </sodipodi:namedview>
  <metadata
     id="metadata5">
    <rdf:RDF>
      <cc:Work
         rdf:about="">
        <dc:format>image/svg+xml</dc:format>
        <dc:type
           rdf:resource="http://purl.org/dc/dcmitype/StillImage" />
        <dc:title></dc:title>
      </cc:Work>
    </rdf:RDF>
  </metadata>
  <g
     inkscape:groupmode="layer"
     id="layer4"
     inkscape:label="box"
     style="display:none" />
  <g
     style="display:inline"
     id="layer1"
     inkscape:groupmode="layer"
     inkscape:label="eye">
    <path
       id="path4286"
       d="M 5.0414259,13.30505 C 18.103989,23.523553 21.158702,10.69666 21.382355,10.509892 11.745266,1.8832814 6.037337,9.4540891 5.0414259,13.30505 Z"
       style="display:inline;fill:#b3b3b3;stroke:#000000;stroke-width:0.19944088px;stroke-linecap:butt;stroke-linejoin:miter;stroke-opacity:0.01242236"
       inkscape:connector-curvature="0" />
  </g>
  <g
     style="display:none"
     inkscape:label="tree"
     id="layer9"
     inkscape:groupmode="layer">
    <path
       style="display:inline;fill:#000000;stroke:none;stroke-width:0.00171858"
       d="m 15.673955,15.667238 c -0.179998,0.915559 0.1064,1.909953 -0.288784,2.780087 -0.64583,-0.736337 -0.647005,-2.223515 -0.574952,-2.806892 -0.08566,0.4985 -0.05255,1.976437 -0.798456,1.020263 -0.222632,-0.287243 -1.066671,-0.723989 -0.343528,-0.155273 1.156331,1.059331 2.126255,2.650885 1.716074,4.271746 -0.646461,0.503234 -1.142013,-0.949267 -1.373423,-1.455297 -0.157716,-0.432982 -0.289724,-1.429766 -0.493862,-1.500158 0.130977,0.39723 0.418549,1.791303 -0.380789,1.144545 -0.616565,-0.719999 -0.570882,-1.750796 -1.05072,-2.533948 -0.06075,0.492956 0.883736,1.68215 0.06482,1.681442 -0.343584,-0.309444 -1.177714,-0.795482 -1.290972,-0.881896 0.593954,0.149271 0.861068,1.212944 -0.03269,0.719557 -0.400551,-0.101444 -0.9914944,-0.124994 -0.241939,0.0055 0.993544,0.202007 2.10559,0.54191 2.642589,1.479327 -1.463667,-0.07863 -2.907831,-0.444632 -4.2441671,-1.043863 0.5688752,-0.0086 1.0608981,0.983796 0.1435146,0.564718 -1.1034894,0.111502 0.5216171,0.147208 0.8501056,0.165217 1.6472089,0.09316 3.5786249,0.344011 4.6070489,1.798027 0.612609,0.742212 0.98369,1.787354 0.653459,2.721084 -0.824194,0.04271 -0.48532,-1.073267 -0.676635,-1.445973 0.230557,0.571423 -0.280541,1.153859 -0.820009,0.86056 0.548991,0.366244 1.951447,1.145532 1.1449,1.864 -0.977137,-0.249128 -2.074071,-0.855828 -2.264155,-1.936609 0.01757,-0.491747 1.099779,-1.518611 0.160502,-0.729068 -0.725756,0.318406 -0.03726,-1.852215 -0.448216,-0.674738 0.09293,0.576249 -0.193157,1.735822 -0.728388,0.745376 -0.364848,-0.525878 -0.669109,-1.225117 -0.400894,-1.857904 0.206371,0.627761 -0.63612,0.371012 -0.668919,0.08222 0.356282,1.115391 -1.5829123,-0.714834 -0.7020009,0.145294 0.3859369,0.173337 1.4626309,0.913501 0.7779849,1.138541 C 9.5523051,21.178109 8.8096231,20.098573 7.6715773,19.558604 8.5670975,20.133924 9.3105455,20.9041 10.0673,21.643968 9.2834394,21.501412 7.8428405,20.60016 7.5904214,20.642841 c 1.489958,0.953426 3.5026296,1.177341 4.5626406,2.728004 -0.234762,0.745769 -1.242018,-0.337451 -1.719749,-0.464741 -0.430554,-0.338336 -1.3175698,-0.985098 -1.5102864,-1.057655 0.5195008,0.06915 0.8475301,1.158896 0.060801,0.635423 -0.5970785,-0.191264 -1.8171752,-0.953827 -1.9920643,-0.82492 0.5966854,0.53664 1.6264506,0.412003 2.0420015,1.1775 -0.364356,0.02584 -1.365937,-0.318372 -1.3270192,-0.125769 1.2732147,0.230464 2.6558274,0.244838 3.7658934,0.993745 -0.577044,0.450843 -2.1214112,-0.146059 -2.2601982,0.13888 1.3522852,0.210851 2.8731742,-0.109716 4.0595482,0.735269 0.856754,0.392323 1.992678,0.920366 1.994787,2.018941 0.472354,1.138639 -1.288632,1.438573 -1.51878,0.333823 -0.287692,-0.422356 -0.842856,-1.695019 -0.918802,-1.578327 0.298732,0.389051 0.252315,1.380176 -0.324011,0.625847 -0.484714,-0.4897 -1.53424,-1.241343 -1.886441,-1.285052 0.920906,0.571377 1.598478,1.433708 2.369851,2.177733 -2.273067,-0.894983 -4.3918612,-2.179108 -6.2394151,-3.77714 0.063228,0.584646 1.6445202,0.909254 1.0026447,1.377769 -0.2315715,0.06679 0.9313551,0.305785 1.1857997,0.511005 0.4463002,0.04002 1.6100977,1.052206 0.550321,0.750332 -0.266674,-0.132783 -1.7880152,-0.376533 -0.8183903,-0.110692 1.2954515,0.325122 2.561367,0.768288 3.775924,1.324038 -1.159848,0.01868 -2.235998,-0.526696 -3.3890152,-0.569499 0.5292905,0.206207 1.8928912,0.197724 1.8113622,0.709878 -0.9457346,0.329594 0.535304,0.03946 0.821493,0.03959 0.529487,-0.10868 1.902423,0.10176 1.708483,0.59055 -0.27505,0.124827 -1.344955,0.316964 -0.481149,0.177572 0.860925,-0.138644 2.160351,0.137541 2.265892,1.17866 0.14721,0.99016 -0.444964,2.288912 0.176535,3.068386 1.021014,0.360387 1.268169,-0.941847 0.907661,-1.61524 -0.06497,-0.96499 0.04652,-2.235537 1.057462,-2.674838 0.577081,-0.251584 1.8631,0.195607 2.049702,0.06679 -0.507969,0.03438 -1.872928,-0.519858 -0.787327,-0.865724 0.800813,-0.333632 2.323804,-0.120586 2.702413,0.137091 -0.640816,0.02782 -0.560443,-1.041584 0.091,-0.611296 0.306992,0.02903 1.07184,-0.2123 0.337452,-0.132106 -0.894115,-5.89e-4 -2.413916,0.461039 -2.900751,0.311637 1.117106,-0.861753 2.553709,-1.421253 3.978876,-1.209636 -0.06644,-0.259846 -1.921641,0.220478 -1.10744,-0.592848 0.49764,-0.338744 2.068522,-0.427373 1.929682,-0.935009 -0.358843,0.132005 -1.456633,0.912103 -1.441792,0.252869 0.573689,-0.600282 1.318666,-1.028563 2.084855,-1.3375 -0.366998,0.522758 -1.618697,0.124948 -0.706077,-0.324956 0.534488,-0.04504 0.907745,-1.549782 0.356249,-0.646875 -0.967917,0.839828 0.08778,-1.106298 -0.09639,-0.990258 -0.562676,1.097122 -0.752944,2.462832 -1.803873,3.242971 -1.487834,1.635569 -3.780684,2.135103 -5.395532,3.611018 -0.870965,0.30586 -0.193982,-1.161265 0.240134,-1.349384 0.731546,-0.643262 1.370857,-1.481783 2.29329,-1.849021 0.251188,-0.172418 1.595658,-0.285975 0.783411,-0.234343 -1.032228,-0.292365 0.501337,-0.526511 0.35368,-0.913417 -0.590613,0.176649 -1.800746,1.700753 -1.962409,0.444609 -0.220009,0.10154 -0.500559,1.295171 -0.979068,1.686993 -0.338766,0.727378 -1.713629,0.755928 -1.157963,-0.263316 0.623997,-1.738034 2.319722,-3.249191 4.246914,-3.09861 0.227667,-0.0072 1.389221,0.359476 1.072111,0.326207 -0.64371,-0.124859 -0.32556,-0.98041 0.249957,-0.711747 -0.412954,0.178759 -1.407579,-0.228952 -0.52902,-0.484743 0.352648,-0.134528 1.070316,-0.843783 0.300907,-0.3285 -0.83449,0.56619 -1.724883,1.212432 -2.77876,1.209484 1.122753,-1.16035 2.548001,-2.233305 4.235075,-2.232906 0.486024,-0.07846 0.53884,-0.304396 0.07026,-0.02737 -0.509428,0.41745 -1.776994,-0.23654 -0.662656,-0.557932 0.831884,-0.471174 -0.809866,0.456299 -0.494958,-0.389403 0.08715,-0.226617 0.317653,-1.15261 0.06203,-0.415415 -0.230349,0.688266 -0.856555,2.172185 -1.718329,1.6849 0.0092,-0.825496 0.319289,-1.649986 0.48772,-2.46652 0.08664,-0.353116 0.297148,-0.691954 -0.0815,-0.289732 -0.393046,-0.09638 -0.647671,-1.003242 -0.317784,-0.153004 0.45478,0.532928 -0.23738,1.919742 -0.601346,0.779566 -0.41123,-0.338736 0.340744,0.704336 0.271539,0.968129 0.159312,0.830553 -0.140371,1.758149 -0.825383,2.27452 -0.207814,0.541902 -1.621813,1.125593 -0.934768,0.09717 0.299348,-0.414444 1.076655,-1.184015 1.071967,-1.375403 -0.311711,0.668123 -1.277671,1.033545 -1.149903,0.391202 -0.418476,0.775737 -0.47738,1.700762 -0.984472,2.441612 -0.147234,0.66264 -1.249786,1.138559 -1.162566,0.098 0.125483,-1.083476 0.318328,-2.303313 1.053407,-3.151696 0.273341,-0.367845 1.301071,-0.841318 1.337456,-0.783993 -0.47054,0.367882 -1.52393,0.01362 -0.781955,-0.578239 0.439379,-0.716906 1.321354,-1.873149 1.45329,-2.337557 -0.351265,0.340585 -0.950943,1.831835 -1.363528,0.983026 0.02764,-0.359968 -0.160312,-1.367966 -0.131634,-0.400929 0.13847,1.072666 -0.268916,2.15847 -0.952418,2.977179 -0.02353,0.416467 -0.825539,1.546526 -0.726854,0.503624 -0.06708,-1.337699 0.403952,-2.622379 0.901144,-3.841081 -0.03937,-0.850242 -0.375193,1.076196 -0.687132,1.365563 -0.51531,0.725081 -0.220194,-0.839708 -0.341423,-1.144937 -0.02101,-0.338804 -0.05056,-0.677556 -0.09976,-1.013385 z"
       id="path4239"
       inkscape:connector-curvature="0" />
  </g>
  <g
     inkscape:groupmode="layer"
     id="layer6"
     inkscape:label="tree 1" />
  <g
     style="display:inline"
     inkscape:label="christmas stocking"
     id="layer2"
     inkscape:groupmode="layer" />
  <g
     inkscape:groupmode="layer"
     id="layer5"
     inkscape:label="colors"
     style="display:inline">
    <path
       id="path190"
       style="display:inline;fill:#004455;stroke-width:0.04501376"
       d="M 11.377083,16.139583 C 11.008051,16.084163 10.687991,16.017058 10.423607,15.939685 10.150936,15.859885 10.100835,15.825466 9.8874513,15.57132 9.0598644,14.58564 8.5462778,13.271351 8.464565,11.930098 8.43324,11.415928 8.39152,11.347059 8.1662444,11.437655 7.8395176,11.56905 7.8487468,11.57375 7.8817704,11.29277 7.9499284,10.712849 8.29866,10.073012 8.8469886,9.5218323 9.0522995,9.3154536 9.2367269,9.1465985 9.2568271,9.1465985 c 0.0201,0 0.048617,0.2987787 0.063372,0.6639528 0.016042,0.3970447 0.063672,0.8358597 0.1184821,1.0915837 0.050411,0.235197 0.091922,0.430206 0.092247,0.433355 3.27e-4,0.0031 -0.086294,-0.0041 -0.1924882,-0.01604 -0.301116,-0.03394 -0.3257363,0.03112 -0.1895802,0.500965 0.2001997,0.690847 0.5656474,1.320313 1.0880122,1.874047 0.33297,0.352966 0.438019,0.406649 0.55686,0.284573 0.128768,-0.132273 3.239163,-5.0122965 3.239163,-5.0820526 0,-0.068355 -0.238874,-0.2341265 -1.450289,-1.0064609 l -0.797589,-0.5085009 -0.21522,0.053973 c -0.37327,0.093608 -0.624682,-0.098402 -0.616194,-0.470604 0.0081,-0.3543637 0.258235,-0.6410619 0.599258,-0.6868028 0.237514,-0.031857 0.442663,0.1503606 0.490284,0.4354785 l 0.03353,0.200773 1.101897,0.7093521 c 0.606043,0.3901434 1.135621,0.7099834 1.176839,0.7107555 0.08204,0.00155 0.667785,-0.876635 0.667785,-1.00117 0,-0.039936 -0.03972,-0.1399268 -0.08826,-0.2222025 -0.142731,-0.2419122 -0.239542,-0.6921321 -0.206204,-0.958958 0.06565,-0.5254124 0.432835,-1.0330558 0.917252,-1.2681121 0.219161,-0.1063448 0.311896,-0.1239388 0.660106,-0.1252371 0.353719,-0.00131 0.437473,0.014376 0.660067,0.1236865 0.339469,0.1667062 0.607111,0.4418041 0.772894,0.7944244 0.358241,0.7619788 0.01774,1.6944843 -0.757754,2.0752392 -0.195757,0.096112 -0.289392,0.1109005 -0.718954,0.1135466 l -0.493886,0.00304 -0.284283,0.4471978 c -0.156355,0.2459586 -0.278462,0.4856665 -0.271348,0.5326836 0.01793,0.1185288 2.229651,1.5287787 2.328026,1.4844117 0.03885,-0.01752 0.15628,-0.04054 0.260955,-0.05116 0.540808,-0.05485 0.644734,0.760269 0.136444,1.070177 -0.334887,0.204183 -0.754392,0.02212 -0.754392,-0.327407 0,-0.09031 -0.03259,-0.182685 -0.07878,-0.223287 -0.200361,-0.176145 -2.1526,-1.3850609 -2.235689,-1.3844423 -0.07427,5.652e-4 -0.37934,0.4472546 -1.466692,2.1476023 -0.755106,1.180798 -1.492563,2.336419 -1.638792,2.568047 l -0.265873,0.421141 0.09065,0.09065 c 0.103754,0.103754 0.714836,0.319653 1.141963,0.403461 0.374286,0.07344 1.392767,0.06612 1.684861,-0.01212 0.263824,-0.07066 0.310228,-0.183467 0.16143,-0.392434 l -0.09239,-0.129746 0.438123,-0.100576 c 0.429641,-0.09863 1.20088,-0.365271 1.492095,-0.515865 0.08099,-0.04188 0.156873,-0.06654 0.168624,-0.05479 0.01175,0.01175 -0.04181,0.210742 -0.119018,0.442204 -0.237627,0.712359 -0.616007,1.25716 -1.142137,1.644475 -0.145164,0.106863 -0.280904,0.194297 -0.301643,0.194297 -0.02074,0 -0.04383,-0.104258 -0.05132,-0.231686 -0.0194,-0.330387 -0.07976,-0.352396 -0.50053,-0.182504 -0.389973,0.157459 -1.116196,0.346787 -1.583709,0.412877 -0.299262,0.04231 -1.267209,0.05332 -1.507961,0.01717 z M 16.7116,7.2170843 c 0.220128,-0.1000021 0.44383,-0.3462156 0.517573,-0.5696591 0.08552,-0.2591334 0.03844,-0.6563356 -0.103152,-0.8703 -0.506648,-0.7655969 -1.713276,-0.4652021 -1.778961,0.4428794 -0.02305,0.3187023 0.04567,0.542204 0.231936,0.7543536 0.273509,0.3115096 0.754358,0.4145594 1.132604,0.2427261 z M 15.638512,31.054274 C 14.549475,30.982848 13.148793,30.722346 12.232449,30.420809 10.1581,29.738209 8.7495012,28.556601 8.1118988,26.964263 7.8440519,26.295349 7.7444067,25.7991 7.701635,24.921095 7.6589084,24.044044 7.5887518,23.451937 7.3776476,22.186773 6.9263504,19.482111 6.0710275,15.821233 5.4941277,14.125097 5.4182087,13.90189 5.3560938,13.712999 5.3560938,13.705338 c 0,-0.0076 0.1617366,0.109194 0.359414,0.259672 0.5252625,0.399847 1.6486788,1.141517 2.3078739,1.523639 3.7941633,2.199391 7.0180613,2.467354 9.5477593,0.793587 1.231077,-0.814537 2.192739,-1.973953 3.0804,-3.713845 l 0.305131,-0.598082 -0.02748,0.276038 c -0.206245,2.072349 -0.04945,4.922642 0.391479,7.116369 0.392664,1.953611 1.086311,3.435067 1.759398,3.757632 0.107519,0.05153 0.412868,0.137196 0.678554,0.190376 1.730743,0.346425 3.176919,0.861712 3.933349,1.40149 0.345267,0.246377 0.507051,0.429778 0.650973,0.737954 0.492959,1.05556 -0.767354,2.428948 -3.503172,3.817481 -2.222134,1.127816 -3.8124,1.571881 -6.344056,1.771515 -0.540398,0.04261 -2.29629,0.0519 -2.857213,0.01512 z M 0,16.933334 V 0 H 16.933334 33.866667 V 16.933334 33.866667 H 16.933334 0 Z m 18.865819,15.807894 c 2.012354,-0.07547 3.822553,-0.384027 5.334318,-0.909282 1.691997,-0.587873 3.919909,-1.695566 5.187131,-2.578981 0.80238,-0.559363 1.55928,-1.249425 1.915467,-1.746331 0.497755,-0.6944 0.639132,-1.456212 0.378437,-2.039243 -0.30679,-0.686119 -1.070888,-1.292168 -2.273817,-1.803496 -0.851664,-0.362014 -1.913259,-0.668473 -3.776353,-1.090153 -0.576027,-0.130373 -0.81383,-0.261103 -1.095594,-0.602296 -0.847567,-1.026327 -1.496241,-3.202889 -1.896131,-6.362283 -0.127168,-1.004708 -0.180566,-2.036819 -0.180613,-3.490994 -3.9e-5,-1.486353 0.05953,-2.7684161 0.158776,-3.4168099 C 22.71583,8.0585224 22.88283,7.3032709 22.938973,7.2471964 23.039716,7.1465724 22.977805,7.0255012 22.728431,6.835471 22.590333,6.7302372 22.224248,6.4369619 21.914908,6.1837493 20.859804,5.3200835 19.64237,4.4756124 18.580467,3.8708206 18.049553,3.5684457 17.021364,3.0665281 16.665893,2.9362081 16.345699,2.8188215 16.069594,2.6852849 16.069594,2.6478113 c 0,-0.017501 0.160123,-0.2999065 0.355833,-0.6275711 C 16.874805,1.2678638 16.998772,1.0231971 16.969371,0.94667072 16.936041,0.85992062 16.78868,0.82133186 16.746244,0.88824162 16.727144,0.91834182 16.488195,1.304107 16.215226,1.7454973 15.787631,2.4369179 15.705651,2.5474685 15.623081,2.5440058 15.570371,2.5417958 15.310305,2.4838588 15.045157,2.4152572 14.018064,2.1495199 12.630806,2.0302752 11.650454,2.1234586 9.3685635,2.3403549 7.3772023,3.3306516 5.6214359,5.1216665 4.6724208,6.089733 4.0114319,7.0026682 3.3930631,8.1994154 3.0016715,8.9568882 2.8442398,9.3158387 2.5906467,10.02896 l -0.1853382,0.521184 0.1377904,0.292464 c 0.7335636,1.557006 2.326575,8.312359 2.8367164,12.02943 0.08703,0.63414 0.1843342,1.651821 0.2244401,2.347393 0.06,1.0406 0.2815072,1.910051 0.6974634,2.737665 0.3656074,0.727436 0.6657196,1.150247 1.2284566,1.730696 1.5943858,1.64458 3.9069916,2.599388 7.2538506,2.994904 0.298292,0.03525 0.578505,0.06983 0.622696,0.07686 0.1989,0.0316 2.444767,0.0197 3.459097,-0.01832 z" />
  </g>
  <g
     style="display:none"
     inkscape:label="anchor"
     id="layer3"
     inkscape:groupmode="layer">
    <path
       id="path4282"
       d="m 10.717092,4.7980873 c -4.0015208,3.526148 -3.7502105,6.5170797 -1.8212284,8.0714677 1.9289824,1.554388 5.1760404,1.599203 6.4468204,-0.91294"
       style="fill:none;stroke:#000000;stroke-width:0.24542201px;stroke-linecap:butt;stroke-linejoin:miter;stroke-opacity:1"
       inkscape:connector-curvature="0" />
    <path
       id="path1995"
       d="M 16.88923,0.94125683 C 14.594461,4.8784381 9.0798746,13.359091 9.2927516,12.993851"
       style="fill:none;stroke:#000000;stroke-width:0.24542201px;stroke-linecap:butt;stroke-linejoin:miter;stroke-opacity:1"
       inkscape:connector-curvature="0" />
  </g>
  <g
     inkscape:groupmode="layer"
     id="layer7"
     inkscape:label="anchor 1"
     style="display:none">
    <g
       style="display:inline;fill:#5fbcd3"
       id="g107"
       transform="matrix(0.0272682,0.01745175,-0.01745175,0.0272682,12.84268,1.8854914)">
      <g
         id="g50"
         style="fill:#5fbcd3">
        <path
           id="path46"
           d="m 187.74,78.652 c -14.697,0 -26.655,-11.957 -26.655,-26.654 0,-14.698 11.958,-26.655 26.655,-26.655 14.698,0 26.655,11.957 26.655,26.655 0,14.697 -11.957,26.654 -26.655,26.654 z m 0,-45.309 c -10.286,0 -18.655,8.369 -18.655,18.655 0,10.286 8.369,18.654 18.655,18.654 10.287,0 18.655,-8.368 18.655,-18.654 0,-10.286 -8.368,-18.655 -18.655,-18.655 z"
           inkscape:connector-curvature="0"
           style="fill:#5fbcd3" />
        <path
           id="path48"
           d="m 186.24,372.479 c -0.298,0 -0.596,-0.033 -0.889,-0.1 -38.095,-8.683 -65.694,-29.495 -82.14,-45.426 C 91.462,315.571 83.658,305.142 79.6,299.175 l -7.074,10.099 c -0.749,1.069 -1.973,1.705 -3.276,1.705 -0.015,0 -0.03,0 -0.046,0 -1.321,-0.016 -2.549,-0.682 -3.282,-1.781 -12.837,-19.252 -17.461,-42.672 -13.37,-67.729 3.07,-18.805 9.875,-31.807 10.163,-32.351 0.683,-1.289 2.012,-2.104 3.471,-2.128 0.021,-0.001 0.043,-0.001 0.064,-0.001 1.434,0 2.76,0.768 3.473,2.016 18.548,32.459 38.716,51.604 46.788,57.192 1.19,0.823 1.844,2.226 1.709,3.666 -0.136,1.44 -1.037,2.696 -2.359,3.283 l -8.991,3.985 c 16.622,15.09 36.793,24.968 58.871,28.819 V 151.993 h -63.205 c -4.296,6.236 -10.842,9.894 -17.908,9.894 -12.553,0 -22.766,-11.616 -22.766,-25.894 0,-14.277 10.212,-25.893 22.766,-25.893 7.065,0 13.611,3.657 17.908,9.894 h 63.205 V 99.113 C 147.428,90.58 135.742,72.373 135.742,51.998 135.742,23.326 159.069,0 187.74,0 c 28.672,0 51.998,23.326 51.998,51.998 0,21.533 -13.144,40.631 -32.998,48.404 v 19.592 h 63.204 c 4.297,-6.236 10.843,-9.894 17.908,-9.894 12.553,0 22.765,11.615 22.765,25.893 0,14.277 -10.212,25.894 -22.765,25.894 -7.065,0 -13.611,-3.657 -17.908,-9.894 H 206.74 v 153.959 c 22.078,-3.852 42.248,-13.729 58.871,-28.819 l -8.991,-3.985 c -1.324,-0.588 -2.228,-1.845 -2.362,-3.287 -0.134,-1.442 0.522,-2.845 1.716,-3.666 8.067,-5.584 28.235,-24.73 46.783,-57.189 0.713,-1.248 2.04,-2.016 3.473,-2.016 0.022,0 0.044,0 0.065,0.001 1.458,0.023 2.788,0.839 3.471,2.128 0.288,0.544 7.092,13.546 10.163,32.351 4.091,25.057 -0.532,48.477 -13.37,67.729 -0.733,1.1 -1.961,1.766 -3.282,1.781 -0.015,0 -0.031,0 -0.046,0 -1.304,0 -2.527,-0.636 -3.276,-1.705 l -7.074,-10.099 c -4.059,5.968 -11.863,16.398 -23.612,27.778 -16.445,15.931 -44.044,36.743 -82.139,45.426 -0.294,0.066 -0.592,0.099 -0.89,0.099 z M 79.749,287.99 c 0.06,0 0.12,10e-4 0.18,0.004 1.367,0.061 2.608,0.817 3.289,2.005 0.335,0.581 34.26,58.277 103.021,74.375 68.89,-16.127 102.686,-73.792 103.021,-74.375 0.682,-1.188 1.922,-1.943 3.289,-2.005 1.367,-0.075 2.67,0.581 3.456,1.701 l 7.007,10.004 c 17.898,-31.707 8.232,-65.716 2.694,-79.955 -16.254,26.67 -31.861,41.966 -39.801,48.77 l 8.415,3.729 c 1.206,0.535 2.07,1.629 2.312,2.925 0.241,1.297 -0.172,2.629 -1.105,3.561 -19.722,19.722 -44.706,32.12 -72.251,35.855 -1.147,0.154 -2.3,-0.191 -3.169,-0.951 -0.87,-0.76 -1.369,-1.858 -1.369,-3.013 V 147.993 c 0,-2.209 1.791,-4 4,-4 h 69.418 c 1.445,0 2.777,0.779 3.485,2.038 2.77,4.919 7.333,7.855 12.208,7.855 8.142,0 14.765,-8.027 14.765,-17.894 0,-9.867 -6.624,-17.893 -14.765,-17.893 -4.875,0 -9.438,2.937 -12.208,7.855 -0.709,1.259 -2.041,2.038 -3.485,2.038 H 202.74 c -2.209,0 -4,-1.791 -4,-4 v -26.4 c 0,-1.728 1.109,-3.26 2.75,-3.8 18.092,-5.949 30.248,-22.744 30.248,-41.794 C 231.738,27.737 212.001,8 187.74,8 c -24.26,0 -43.997,19.737 -43.997,43.998 0,18.013 10.794,34.022 27.5,40.787 1.51,0.612 2.499,2.078 2.499,3.708 v 27.501 c 0,2.209 -1.791,4 -4,4 h -69.419 c -1.445,0 -2.777,-0.779 -3.486,-2.038 -2.769,-4.919 -7.332,-7.855 -12.207,-7.855 -8.142,0 -14.766,8.026 -14.766,17.893 0,9.867 6.624,17.894 14.766,17.894 4.875,0 9.438,-2.937 12.207,-7.855 0.709,-1.259 2.041,-2.038 3.486,-2.038 h 69.419 c 2.209,0 4,1.791 4,4 v 162.626 c 0,1.154 -0.499,2.253 -1.369,3.013 -0.87,0.759 -2.021,1.104 -3.169,0.951 -27.546,-3.734 -52.53,-16.133 -72.252,-35.855 -0.932,-0.932 -1.345,-2.264 -1.104,-3.561 0.242,-1.296 1.106,-2.39 2.312,-2.925 l 8.414,-3.729 c -7.939,-6.802 -23.542,-22.096 -39.794,-48.756 -5.521,14.262 -15.16,48.303 2.688,79.94 l 7.006,-10.003 c 0.75,-1.072 1.974,-1.706 3.275,-1.706 z"
           inkscape:connector-curvature="0"
           style="fill:#5fbcd3" />
      </g>
      <g
         id="g52"
         style="fill:#5fbcd3" />
      <g
         id="g54"
         style="fill:#5fbcd3" />
      <g
         id="g56"
         style="fill:#5fbcd3" />
      <g
         id="g58"
         style="fill:#5fbcd3" />
      <g
         id="g60"
         style="fill:#5fbcd3" />
      <g
         id="g62"
         style="fill:#5fbcd3" />
      <g
         id="g64"
         style="fill:#5fbcd3" />
      <g
         id="g66"
         style="fill:#5fbcd3" />
      <g
         id="g68"
         style="fill:#5fbcd3" />
      <g
         id="g70"
         style="fill:#5fbcd3" />
      <g
         id="g72"
         style="fill:#5fbcd3" />
      <g
         id="g74"
         style="fill:#5fbcd3" />
      <g
         id="g76"
         style="fill:#5fbcd3" />
      <g
         id="g78"
         style="fill:#5fbcd3" />
      <g
         id="g80"
         style="fill:#5fbcd3" />
    </g>
  </g>
  <g
     inkscape:groupmode="layer"
     id="layer8"
     inkscape:label="anchor 2"
     style="display:none" />
</svg>
