<?xml version="1.0" encoding="UTF-8" standalone="no"?>
<svg
   xmlns:dc="http://purl.org/dc/elements/1.1/"
   xmlns:cc="http://creativecommons.org/ns#"
   xmlns:rdf="http://www.w3.org/1999/02/22-rdf-syntax-ns#"
   xmlns:svg="http://www.w3.org/2000/svg"
   xmlns="http://www.w3.org/2000/svg"
   xmlns:sodipodi="http://sodipodi.sourceforge.net/DTD/sodipodi-0.dtd"
   xmlns:inkscape="http://www.inkscape.org/namespaces/inkscape"
   inkscape:version="1.0 (4035a4fb49, 2020-05-01)"
   sodipodi:docname="icon_colors.svg"
   id="svg8"
   version="1.1"
   viewBox="0 0 33.866667 33.866667"
   height="128"
   width="128">
  <defs
     id="defs2">
    <pattern
       id="EMFhbasepattern"
       patternUnits="userSpaceOnUse"
       width="6"
       height="6"
       x="0"
       y="0" />
    <pattern
       id="EMFhbasepattern-9"
       patternUnits="userSpaceOnUse"
       width="6"
       height="6"
       x="0"
       y="0" />
    <pattern
       id="EMFhbasepattern-3"
       patternUnits="userSpaceOnUse"
       width="6"
       height="6"
       x="0"
       y="0" />
  </defs>
  <sodipodi:namedview
     inkscape:window-maximized="1"
     inkscape:window-y="-8"
     inkscape:window-x="-8"
     inkscape:window-height="1017"
     inkscape:window-width="1920"
     width="128px"
     units="px"
     showgrid="true"
     inkscape:document-rotation="0"
     inkscape:current-layer="layer1"
     inkscape:document-units="mm"
     inkscape:cy="64.32996"
     inkscape:cx="64.333476"
     inkscape:zoom="4.6680096"
     inkscape:pageshadow="2"
     inkscape:pageopacity="0.0"
     borderopacity="1.0"
     bordercolor="#666666"
     pagecolor="#ffffff"
     id="base">
    <inkscape:grid
       id="grid1971"
       type="xygrid" />
  </sodipodi:namedview>
  <metadata
     id="metadata5">
    <rdf:RDF>
      <cc:Work
         rdf:about="">
        <dc:format>image/svg+xml</dc:format>
        <dc:type
           rdf:resource="http://purl.org/dc/dcmitype/StillImage" />
        <dc:title></dc:title>
      </cc:Work>
    </rdf:RDF>
  </metadata>
  <g
     style="display:inline"
     inkscape:label="colors"
     id="layer10"
     inkscape:groupmode="layer">
    <path
       transform="scale(0.26458333)"
       id="path4272"
       d="m 58.715091,122.43177 c -0.609235,-0.13764 -0.666303,-0.39283 -0.867355,-3.87858 -0.269443,-4.67154 -0.0043,-7.02165 1.019955,-9.04201 1.447439,-2.85496 4.049381,-3.5613 9.159217,-2.48641 1.202121,0.25288 2.245195,0.40025 2.317942,0.3275 0.253712,-0.25371 -0.99628,-0.72271 -3.25852,-1.2226 -3.746434,-0.82786 -3.88448,-1.21558 -0.816691,-2.29382 2.507021,-0.88114 6.579854,-0.8293 9.911796,0.12617 0.496691,0.14243 0.348375,-0.024 -0.430886,-0.48341 -1.889156,-1.11382 -1.701343,-1.35377 1.252112,-1.59969 3.212713,-0.26751 4.630901,-0.71478 2.359839,-0.74424 -1.331879,-0.0173 -8.475291,0.88868 -10.868673,1.37842 -1.30839,0.26772 -0.772735,-0.2988 1.634977,-1.7292 3.247401,-1.929242 6.058987,-2.701741 9.833275,-2.701741 1.774298,0 3.233471,-0.132399 3.338882,-0.302958 0.119345,-0.193103 -0.780476,-0.304458 -2.481527,-0.307094 -2.725997,-0.0042 -4.032082,-0.195921 -4.032082,-0.59179 0,-0.491899 3.92438,-2.163725 6.00233,-2.557053 1.993756,-0.377389 3.151324,-0.785483 2.228046,-0.785483 -0.719748,0 -0.319322,-0.609462 0.782642,-1.191206 1.942379,-1.025418 0.510242,-0.685132 -2.463263,0.585288 -2.83083,1.209463 -3.823128,1.453508 -3.823128,0.94026 0,-0.386133 1.906312,-2.009761 3.740027,-3.185422 0.85896,-0.550709 2.038908,-1.306051 2.622103,-1.678536 0.583195,-0.372484 0.809857,-0.596056 0.503693,-0.496828 -0.306164,0.09923 -1.109307,0.268788 -1.784762,0.376796 l -1.228103,0.196384 0.719941,-0.973773 c 0.395967,-0.535576 1.130945,-1.237707 1.633283,-1.560294 1.90444,-1.222971 2.094083,-1.43985 1.687461,-1.929801 -0.306306,-0.369076 -0.25457,-0.623964 0.278634,-1.372781 0.36013,-0.505756 0.520777,-0.919555 0.356995,-0.919555 -0.163783,0 -0.798166,0.681657 -1.409745,1.514793 -0.61158,0.833136 -1.247514,1.514793 -1.413187,1.514793 -0.451978,0 -0.02196,-1.7032 0.983819,-3.896735 0.977344,-2.131505 0.986515,-2.162437 0.641218,-2.162437 -0.321552,0 -1.439481,2.325104 -2.503956,5.207801 -1.425357,3.859992 -2.377477,5.433516 -4.793738,7.922406 -2.969867,3.059127 -4.000005,3.795329 -10.031316,7.169024 -2.749349,1.537882 -6.565815,3.868162 -8.481041,5.178392 -2.927567,2.00279 -3.51169,2.29877 -3.667225,1.85822 -0.227089,-0.64322 0.139882,-2.00208 0.821699,-3.04267 0.280385,-0.42792 2.091496,-2.31955 4.02469,-4.203614 3.919311,-3.819716 5.321116,-4.662344 9.222862,-5.543887 l 2.471914,-0.558495 -2.04497,-0.02554 c -1.124734,-0.01406 -2.044971,-0.158371 -2.044971,-0.320721 0,-0.162349 0.443077,-0.523382 0.984616,-0.802298 1.317267,-0.678451 2.953846,-1.938965 2.953846,-2.275091 0,-0.487657 -2.068122,0.578829 -4.746888,2.447863 -3.068004,2.140617 -3.583004,2.269447 -3.350746,0.838201 0.191079,-1.177476 -0.0419,-2.640123 -0.420525,-2.640123 -0.147202,0 -0.26764,0.390677 -0.26764,0.86817 0,1.667984 -1.957864,4.930696 -4.351564,7.251741 -2.577868,2.499624 -3.525359,2.807974 -3.525359,1.147316 0,-1.620577 1.014175,-4.473856 2.254248,-6.342108 1.573058,-2.369911 4.874577,-5.335249 7.323151,-6.577467 1.969313,-0.999075 2.19299,-1.042722 5.252769,-1.025027 2.29133,0.01324 3.581731,0.168991 4.559181,0.550252 2.383472,0.929692 2.626378,0.877126 0.796085,-0.172274 -0.978487,-0.561013 -1.796475,-1.152388 -1.817752,-1.314162 -0.02127,-0.161774 0.685968,-0.382576 1.571661,-0.490675 2.387832,-0.291431 2.275598,-0.560855 -0.233638,-0.560855 -2.656471,0 -2.611128,-0.121517 0.907333,-2.431452 1.326498,-0.870869 2.411814,-1.706044 2.411814,-1.855945 0,-0.366892 -1.522412,0.440311 -4.089941,2.168535 -2.854206,1.921188 -4.830529,2.884526 -6.75574,3.293014 -0.882994,0.187353 -1.667465,0.340641 -1.743269,0.340641 -0.0758,0 0.851144,-0.9096 2.059882,-2.021331 3.751791,-3.450692 7.047792,-5.256555 10.389495,-5.692358 2.269845,-0.296018 5.576707,-1.103887 5.764884,-1.408364 0.234875,-0.380034 -0.252004,-0.336144 -1.752001,0.157933 -3.399473,1.119741 -7.502366,0.797908 -4.906462,-0.384867 1.222686,-0.557092 3.759779,-2.277867 3.759779,-2.550054 0,-0.134665 -0.591387,0.101731 -1.314191,0.525325 -2.338471,1.370433 -3.380128,0.91578 -2.364798,-1.032168 0.336587,-0.645759 0.697017,-1.697308 0.800953,-2.336774 0.175358,-1.078896 0.15562,-1.121308 -0.273969,-0.58864 -0.254621,0.315716 -0.816973,1.637076 -1.249674,2.936357 -0.895076,2.687669 -2.181683,4.298055 -4.459859,5.582193 l -1.439053,0.811151 V 78.65418 c 0,-1.125234 1.826313,-9.367549 2.424859,-10.943618 0.300583,-0.79148 0.484906,-1.439054 0.409609,-1.439054 -0.0753,0 -0.448863,0.362675 -0.830149,0.805943 -0.860348,1.000215 -1.22893,0.793258 -1.663933,-0.934291 -0.187029,-0.742764 -0.47646,-1.434785 -0.643178,-1.537821 -0.464657,-0.287174 -0.364405,0.485888 0.317967,2.451877 0.782669,2.254963 0.829092,3.902028 0.131696,4.672637 -0.695157,0.768142 -0.936197,0.577748 -1.863556,-1.471997 -1.121383,-2.478589 -1.222701,-1.394261 -0.133605,1.429864 1.428232,3.703529 1.477684,4.511302 0.413936,6.761681 -0.496486,1.050324 -1.459379,2.535358 -2.139757,3.300073 -1.31365,1.476481 -4.487002,3.826179 -4.776466,3.536718 -0.334573,-0.334576 1.064023,-2.534243 3.325388,-5.230068 1.257963,-1.499645 2.290209,-2.851916 2.293884,-3.005046 0.0037,-0.153131 -1.001278,0.69894 -2.233223,1.893491 -1.231944,1.19455 -2.381245,2.17191 -2.553998,2.17191 -0.210193,0 -0.220872,-0.325066 -0.03229,-0.982616 0.154993,-0.540439 0.277473,-1.256178 0.272175,-1.590533 -0.01893,-1.194692 -0.831431,0.398276 -1.991332,3.90417 -1.486272,4.492394 -2.31115,6.056051 -4.128622,7.826326 -1.946976,1.896412 -2.214461,1.669311 -2.163046,-1.836477 0.0631,-4.30263 1.690479,-9.202119 3.922717,-11.809986 0.774744,-0.905116 1.600257,-1.425472 3.235213,-2.039293 1.207284,-0.45326 2.324574,-0.942098 2.482869,-1.08631 0.454884,-0.414411 -0.85267,-0.310929 -1.992825,0.157718 -1.48682,0.611137 -2.990843,0.888592 -2.990843,0.551733 0,-0.42274 3.110948,-5.549983 5.276951,-8.697099 2.553159,-3.709632 2.502174,-3.615141 1.726615,-3.200074 -0.353937,0.189421 -1.405655,1.432048 -2.337153,2.761393 -1.632177,2.329294 -2.557049,3.204457 -2.960308,2.801197 -0.105221,-0.105223 -0.200895,-1.225158 -0.212607,-2.48875 -0.03715,-4.008312 -0.472943,-3.725291 -0.681003,0.442271 -0.228167,4.570352 -0.483715,5.652795 -1.745886,7.395168 -0.510361,0.704533 -1.675307,2.666014 -2.588769,4.358847 l -1.66084,3.077877 0.130554,-4.089941 c 0.141178,-4.422862 0.540511,-6.31728 2.062738,-9.785535 0.588046,-1.339807 0.984428,-2.8165 1.06683,-3.974382 l 0.131117,-1.84245 -1.015462,2.878107 c -0.558505,1.582958 -1.367592,3.558948 -1.797972,4.391088 l -0.782508,1.512981 -0.177401,-2.270378 c -0.09757,-1.248707 -0.276659,-3.49736 -0.397978,-4.997005 l -0.220578,-2.726627 -0.236166,2.423669 c -0.12989,1.333017 -0.347681,3.923313 -0.483976,5.756213 l -0.247814,3.332544 -1.039151,-2.12071 c -0.962957,-1.965217 -1.047567,-2.373453 -1.153975,-5.567719 -0.1287,-3.863439 -0.640679,-4.086248 -0.648253,-0.282113 -0.0027,1.359819 -0.143112,2.41563 -0.337187,2.535574 -0.182902,0.11304 -1.034973,-0.47154 -1.893491,-1.299068 -1.581925,-1.524821 -3.277436,-2.809159 -3.708492,-2.809159 -0.129945,0 0.988403,1.261065 2.485212,2.802367 4.768601,4.91034 6.175947,7.904122 6.175947,13.137811 0,3.107449 -0.01681,3.185897 -0.663052,3.091543 -1.495864,-0.218409 -4.357023,-5.469947 -5.417154,-9.942964 -0.375169,-1.582958 -0.796578,-3.007621 -0.936463,-3.165917 -0.423236,-0.478938 -0.286541,2.054586 0.196823,3.647945 0.582777,1.921073 0.572934,2.522361 -0.04517,2.759547 -1.076697,0.413169 -2.939147,-2.805599 -4.197076,-7.253571 -0.873533,-3.088765 -1.873854,-5.055143 -1.503781,-2.956051 0.102818,0.583195 0.440535,1.878343 0.750483,2.878106 0.716988,2.312704 1.012258,3.786983 0.758457,3.786983 -0.10921,0 -0.972112,-0.594454 -1.917564,-1.321009 -2.182868,-1.677482 -4.692692,-3.22337 -5.233295,-3.22337 -0.229734,0 0.490371,0.609177 1.600233,1.353725 3.346315,2.244868 3.098892,2.565574 -1.289406,1.671295 -1.694848,-0.345388 -3.149063,-0.560455 -3.23159,-0.477929 -0.08253,0.08253 0.24095,0.243057 0.718837,0.35674 6.836305,1.626224 9.360144,2.676751 11.047345,4.598365 0.504286,0.574352 0.861465,1.099692 0.79373,1.167427 -0.540839,0.540839 -11.32503,-1.969449 -14.228995,-3.312152 -2.225186,-1.028857 -2.291843,-0.60306 -0.07574,0.483819 0.91645,0.449469 1.666272,0.94839 1.666272,1.108719 0,0.178088 -1.001907,0.220796 -2.575148,0.109771 -1.627143,-0.11483 -2.575148,-0.07081 -2.575148,0.119566 0,0.173616 1.636882,0.385454 3.862722,0.49989 6.923703,0.355971 12.095616,1.42552 15.330456,3.170338 1.796414,0.968952 4.406287,4.020133 5.732194,6.701456 0.791661,1.600939 0.975424,2.357787 1.02982,4.24142 0.07587,2.627235 -0.06934,3.353112 -0.670787,3.353112 -0.732996,0 -1.436611,-1.872363 -1.62453,-4.32298 -0.227698,-2.969345 -0.756079,-3.198882 -0.87762,-0.381255 -0.05011,1.161786 -0.24655,2.208399 -0.436523,2.325807 -0.189971,0.117412 -0.737529,0.01069 -1.216794,-0.237141 -0.479266,-0.247835 -1.081344,-0.408294 -1.337956,-0.356576 -0.276765,0.05578 0.432004,0.710265 1.742281,1.608831 3.530689,2.421294 5.300536,5.613974 3.243535,5.851118 -0.90245,0.104039 -4.330356,-1.724579 -6.484786,-3.459311 -1.391649,-1.12055 -2.666817,-3.478425 -2.376261,-4.393881 0.103139,-0.324966 0.858727,-1.42718 1.679084,-2.449363 0.820354,-1.022182 1.491556,-1.986184 1.491556,-2.142223 0,-0.156039 -0.772505,0.422318 -1.716675,1.285238 -2.131762,1.948309 -2.437669,1.677809 -1.896482,-1.676972 0.201422,-1.24862 0.289841,-2.346599 0.196484,-2.439956 -0.41376,-0.41376 -0.926996,1.451635 -1.222607,4.443651 l -0.320625,3.24518 -1.166004,-1.403928 c -1.980128,-2.384178 -2.754074,-4.289727 -2.60112,-6.404281 0.07225,-0.998921 0.09042,-1.816218 0.04037,-1.816218 -0.05005,0 -0.290375,0.477159 -0.53405,1.060355 -0.557895,1.335232 -0.93995,1.341967 -1.37484,0.02424 -0.355849,-1.078235 -1.219833,-2.079732 -1.219833,-1.413986 0,0.192891 0.216249,0.680748 0.480552,1.084128 0.51075,0.779503 0.36613,1.365977 -0.336839,1.365977 -0.234545,0 -1.117204,-0.613491 -1.961464,-1.363314 -0.84426,-0.749822 -1.687929,-1.363314 -1.874819,-1.363314 -0.543062,0 0.660333,1.173489 2.696556,2.629542 2.305539,1.648634 3.583306,3.084233 3.139851,3.527689 -0.411728,0.411726 -2.700911,-1.177216 -6.082298,-4.22178 -2.582119,-2.32491 -5.64812,-4.5682 -5.899705,-4.316614 -0.0739,0.0739 0.780231,0.835611 1.898059,1.692699 1.117828,0.857091 2.918569,2.467619 4.001646,3.578956 2.34159,2.402683 2.146886,2.390704 -3.31353,-0.203891 -2.072382,-0.984722 -3.905363,-1.744602 -4.073292,-1.688628 -0.504852,0.168285 2.808861,1.920676 7.529466,3.981803 5.744141,2.508031 7.424606,3.545855 9.426779,5.821813 0.902025,1.025372 1.640044,1.945609 1.640044,2.04497 0,0.879995 -5.202129,-1.648443 -8.937278,-4.343865 -3.097738,-2.235441 -4.658486,-3.187797 -4.872888,-2.973393 -0.0664,0.0664 0.770148,0.761598 1.858989,1.544891 1.885512,1.356407 2.353302,2.268536 0.943433,1.839571 -0.360889,-0.109804 -2.610487,-1.080787 -4.999107,-2.157741 -2.38862,-1.076954 -4.412017,-1.889028 -4.496437,-1.804606 -0.270087,0.270085 2.097295,1.614963 4.630739,2.630659 1.351045,0.541654 2.782525,1.235544 3.181065,1.541975 0.674447,0.518574 0.682666,0.557616 0.118703,0.563836 -0.333254,0.0037 -1.674478,-0.19779 -2.980497,-0.4477 -2.743031,-0.524891 -3.230154,-0.553651 -3.230154,-0.19071 0,0.14502 1.942722,0.561431 4.31716,0.925357 4.981397,0.763486 8.220352,1.573912 10.019811,2.507076 l 1.265396,0.656208 -1.211834,0.298351 c -0.824946,0.203097 -2.363145,0.184102 -4.818039,-0.0595 -3.291278,-0.326602 -4.174191,-0.303713 -3.772682,0.0978 0.307705,0.307706 4.479108,0.75257 7.110317,0.75829 1.518559,0.0033 3.495364,0.137883 4.392899,0.299072 2.479192,0.445237 8.875781,3.781923 10.796381,5.631769 l 1.590532,1.531938 0.06048,2.103565 c 0.123504,4.29534 0.01418,4.57086 -1.687173,4.25169 -1.689485,-0.31695 -3.449487,-2.30661 -5.465276,-6.178415 -1.034092,-1.986218 -1.895442,-3.311771 -2.050954,-3.156259 -0.155515,0.155515 0.05279,0.957491 0.495982,1.909578 0.420252,0.902808 0.765428,1.811876 0.767055,2.020166 0.005,0.63396 -0.758299,0.42444 -1.534764,-0.42131 -1.252388,-1.364157 -5.128354,-4.340583 -6.669139,-5.121358 -2.170725,-1.099991 -2.473228,-0.902638 -0.574892,0.375053 1.756312,1.182105 7.674944,6.754105 7.432159,6.996895 -0.07841,0.0784 -2.36304,-0.95084 -5.076958,-2.287231 -5.053665,-2.488526 -11.575291,-6.609602 -15.088199,-9.53437 L 22.093941,88.794322 21.39894,84.273744 C 19.473302,71.748585 14.18345,48.802547 11.77425,42.52427 c -0.105712,-0.275481 1.326301,0.586124 3.182252,1.914679 14.077568,10.077214 27.550299,15.153017 38.297555,14.428466 12.373082,-0.834161 22.127858,-8.152272 29.205706,-21.910353 0.920601,-1.789481 1.581193,-2.912772 1.467983,-2.496204 -0.435894,1.603954 -0.557453,14.192634 -0.184602,19.117395 1.144866,15.121805 4.314276,26.571109 8.526758,30.802414 1.399411,1.405667 1.742723,1.532446 7.996738,2.95304 9.83556,2.234141 16.2746,5.464191 18.00066,9.029765 0.8274,1.709165 0.79299,3.024908 -0.13102,5.009798 -1.84787,3.96949 -8.36878,9.01924 -17.26372,13.36894 -11.90747,5.82285 -19.331309,7.52099 -33.779883,7.72683 -4.248994,0.0605 -8.018907,0.0438 -8.377586,-0.0373 z M 87.996819,88.084526 c 0.391632,-0.253091 0.383634,-0.294321 -0.05786,-0.29832 -0.281763,-0.0024 -0.596555,0.131693 -0.699537,0.29832 -0.236968,0.383425 0.164091,0.383425 0.757396,0 z"
       style="fill:#ff2a2a;fill-opacity:1;stroke-width:0.302959" />
    <path
       transform="scale(0.26458333)"
       id="path4274"
       d="M 48.460725,120.95387 C 34.326108,117.64548 25.656145,110.39836 23.167794,99.811829 22.846274,98.443943 22.498978,95.639967 22.396025,93.580773 l -0.187187,-3.74399 1.310559,1.009002 c 1.851,1.42509 2.976831,2.462441 2.976831,2.742881 0,0.132265 -0.647574,0.172362 -1.439054,0.08911 -1.351874,-0.142206 -1.292226,-0.09944 0.984616,0.705902 2.940231,1.039992 7.153612,3.199078 7.921666,4.059342 0.54844,0.614284 0.547424,0.62444 -0.04474,0.447574 -1.365019,-0.407697 -6.250308,-1.414347 -6.863854,-1.414347 -1.13432,0 -0.449682,0.284791 2.573712,1.070594 3.07895,0.800243 9.112927,2.844849 11.221696,3.802469 1.909813,0.86727 0.564644,0.73711 -4.962323,-0.48017 -5.106841,-1.12474 -5.751771,-1.22208 -5.286628,-0.79788 0.158296,0.14437 1.582959,0.56871 3.165918,0.943 1.582958,0.37428 3.206682,0.85082 3.608275,1.05898 0.703208,0.36449 0.672446,0.39231 -0.833136,0.75349 -0.859818,0.20627 -1.563305,0.51235 -1.563305,0.68019 0,0.17385 0.228132,0.20892 0.530177,0.0815 0.291598,-0.123 2.370651,-0.27655 4.620119,-0.34122 3.359153,-0.0966 4.357029,-0.0218 5.584732,0.41845 0.822135,0.29481 1.539997,0.67873 1.595249,0.85314 0.05525,0.17441 -0.68557,0.48654 -1.64627,0.69363 -0.960701,0.2071 -2.155723,0.57695 -2.655605,0.8219 l -0.908876,0.44536 1.060355,-0.22648 c 0.583196,-0.12456 2.219172,-0.22344 3.635503,-0.21973 2.936103,0.008 4.473538,0.609 5.904163,2.3092 0.740934,0.88055 0.810384,1.15042 0.646659,2.51269 -0.100882,0.83941 -0.184611,3.40075 -0.186059,5.69188 l -0.0026,4.16568 -0.833136,-0.025 c -0.458225,-0.0137 -2.19645,-0.34408 -3.862722,-0.73409 z"
       style="fill:#ff2a2a;fill-opacity:1;stroke-width:0.302959" />
    <path
       transform="scale(0.26458333)"
       id="path4321"
       d="m 46.417807,32.690624 c 1.272621,-1.940001 8.131061,-12.81655 10.389856,-16.476892 1.454174,-2.356464 2.770547,-4.422497 2.925274,-4.591183 0.242139,-0.263983 0.573218,-0.192212 2.376991,0.515279 2.451246,0.961449 6.306484,2.855911 8.736614,4.293167 4.871534,2.881181 14.10572,9.843795 13.584063,10.242439 -0.04837,0.03696 -8.474819,1.491342 -18.725441,3.231951 -10.250622,1.740608 -18.87586,3.219825 -19.167197,3.287147 l -0.529702,0.122403 z"
       style="fill:#aaffee;fill-opacity:1;stroke-width:0.214224" />
    <path
       transform="scale(0.26458333)"
       id="path4323"
       d="M 48.460127,57.66279 C 38.15416,56.832181 25.669837,51.138465 12.730929,41.367798 11.40815,40.368917 11.395086,40.34911 11.981145,40.231023 c 0.328048,-0.0661 3.777678,-0.655022 7.665845,-1.308718 3.888167,-0.653695 7.320232,-1.23913 7.626813,-1.300967 0.549459,-0.110824 0.55946,-0.09046 0.700403,1.426029 0.198363,2.134302 0.498887,3.269743 1.335354,5.045231 1.430903,3.037243 3.898942,5.399453 7.475355,7.154815 2.907078,1.426842 5.304743,1.987132 8.461851,1.977379 4.172283,-0.0129 7.520995,-1.247817 10.213466,-3.766492 1.136731,-1.063357 3.247292,-3.919197 3.030722,-4.100928 -0.03817,-0.03203 -0.267713,-0.161141 -0.510084,-0.286904 -0.394065,-0.204475 -0.51633,-0.102176 -1.155926,0.967155 -2.949869,4.931852 -9.423517,7.189045 -15.903705,5.54521 -2.0625,-0.523196 -5.100332,-1.883491 -5.100332,-2.28385 0,-0.121664 0.465738,-0.915758 1.034976,-1.764655 0.569236,-0.848898 2.606282,-4.001672 4.526769,-7.006164 1.920487,-3.004493 3.605078,-5.585184 3.743538,-5.734871 0.214532,-0.231929 38.238678,-6.897379 39.377136,-6.902622 0.20619,-9.5e-4 0.374892,0.09799 0.374892,0.219871 0,0.49102 -2.056016,5.406436 -3.319987,7.93725 -2.742867,5.491972 -5.236253,9.031774 -8.969909,12.734369 -3.808244,3.776565 -7.473515,6.076907 -12.079555,7.581195 -3.436092,1.122196 -8.060103,1.62089 -12.04864,1.299434 z"
       style="fill:#aaffee;fill-opacity:1;stroke-width:0.214224" />
    <path
       transform="scale(0.26458333)"
       id="path4325"
       d="m 32.870074,47.055302 c -2.542284,-2.608789 -3.690113,-5.184904 -3.690113,-8.281858 0,-1.329375 0.04024,-1.459498 0.482004,-1.558508 1.547277,-0.346786 13.330029,-2.267409 13.581883,-2.213887 0.202184,0.04297 -1.095803,2.238986 -3.899979,6.598235 -2.311661,3.593609 -4.339639,6.675422 -4.506618,6.848474 -0.26496,0.274597 -0.515321,0.09738 -1.967177,-1.392456 z"
       style="fill:#aaffee;fill-opacity:1;stroke-width:0.214224" />
    <path
       transform="scale(0.26458333)"
       id="path4327"
       d="m 11.405731,37.39307 c 2.194261,-6.367755 6.848369,-13.490707 11.956058,-18.298335 8.874725,-8.353361 19.641866,-11.5405556 31.0855,-9.2016547 1.125432,0.2300207 2.545339,0.5670117 3.155351,0.7488677 l 1.109109,0.330648 -1.944786,3.156128 c -4.211487,6.834683 -11.808674,18.812928 -12.137071,19.136136 -0.241946,0.238125 -2.567621,0.715091 -7.675065,1.574059 -4.030362,0.677822 -7.418588,1.198886 -7.52939,1.157917 -0.370331,-0.136929 0.596805,-3.253384 1.685133,-5.430091 1.568497,-3.13707 3.58993,-5.835876 6.860409,-9.1593 2.163576,-2.198601 2.854373,-3.02808 2.720713,-3.266917 -0.09853,-0.176063 -0.322033,-0.320115 -0.496675,-0.320115 -0.450457,0 -4.860041,4.472934 -6.546889,6.640946 -2.757097,3.543543 -4.510264,6.959071 -5.241136,10.210806 l -0.380663,1.693617 -8.045703,1.369313 c -4.425136,0.753124 -8.312019,1.411576 -8.637516,1.46323 l -0.591813,0.09391 z"
       style="fill:#aaffee;fill-opacity:1;stroke-width:0.214224" />
  </g>
  <g
     style="display:inline"
     id="layer1"
     inkscape:groupmode="layer"
     inkscape:label="eye">
    <path
       id="path4286"
       d="M 2.6458333,10.583333 C 18.719973,23.157713 22.47895,7.373578 22.754167,7.14375 10.895245,-3.4717281 3.8713525,5.8445305 2.6458333,10.583333 Z"
       style="display:inline;fill:none;stroke:#000000;stroke-width:0.245422px;stroke-linecap:butt;stroke-linejoin:miter;stroke-opacity:1" />
  </g>
  <g
     style="display:none"
     inkscape:label="tree"
     id="layer9"
     inkscape:groupmode="layer">
    <path
       sodipodi:nodetypes="cccccccccccccccccccccccccccccccccccccccccccccccccccccccccccccccccccccccccccccccccccccccccccccccccccccccccccccccccccccccccccccccccccccccccccc"
       d="m 14.650351,16.025604 c -0.07037,0.982912 -0.10225,1.966546 -0.163734,2.949632 -0.738149,-0.957448 -0.844177,-2.033148 -0.653225,-3.062023 -0.389704,0.469896 0.118496,1.463397 -0.339922,1.646487 -0.47079,-0.405211 -0.768704,-0.904874 -1.446443,-1.214879 1.654695,1.333972 2.695221,2.991113 2.347258,4.640464 0.271098,0.603831 -0.464979,0.572355 -0.604902,0.04602 -0.824549,-0.979887 -1.034114,-2.075508 -1.25112,-3.142204 -0.320027,0.516461 0.611014,1.653957 -0.05452,1.81565 -1.033251,-0.901259 -0.926315,-2.022702 -1.415339,-3.027455 0.03656,0.709409 0.492753,1.397176 0.447593,2.1073 -0.621726,-0.470651 -1.195829,-0.98413 -2.0151934,-1.35118 0.3047515,0.276513 1.6558564,0.901394 0.8974314,1.021915 -0.5293594,-0.152217 -2.5999089,-0.512562 -0.994484,-0.170336 1.291957,0.224751 2.455138,0.741158 2.799964,1.509575 C 11.263094,19.78366 10.00672,19.470447 9.065487,19.207199 8.6487187,19.08233 7.2801893,18.366474 8.176523,18.895605 c 0.606154,0.187422 1.1788196,0.690718 0.0019,0.445019 -0.6775752,-0.05987 -1.1429145,0.108033 -0.2041612,0.07654 1.7327826,0.07316 3.7273112,0.253292 4.8702702,1.076018 0.972266,0.946248 1.695416,2.035441 1.44692,3.148561 0.138902,0.34381 -0.187521,0.874259 -0.453222,0.259656 -0.351943,-0.448701 -0.05769,-1.399 -0.309751,-1.582616 -0.209683,0.336587 0.348027,1.731817 -0.732359,1.045105 -0.703158,-0.256759 0.617375,0.468503 0.730026,0.613277 0.358989,0.314109 1.288875,1.414745 0.272654,1.402242 -0.888658,-0.484409 -1.955252,-1.006276 -2.147646,-1.741297 -0.436358,-0.556235 0.892771,-1.47396 0.793979,-1.672917 -0.299644,0.221888 -1.099371,1.327788 -1.024448,0.481739 -0.0597,-0.38514 0.178451,-0.857164 0.101428,-1.187402 -0.372564,0.632009 -0.211391,1.739609 -0.353629,2.111229 C 10.449753,22.562144 9.7594645,21.633611 10.196807,20.714035 10.141237,20.96711 9.7917679,21.834288 9.650826,21.10188 9.5942573,20.761299 9.1005598,20.349406 9.5016833,20.904052 9.8415857,21.314243 9.3228142,21.545667 8.9904743,21.090796 8.6783109,20.832511 7.9787161,20.206662 8.590831,20.862785 c 0.4193712,0.370393 1.91659,1.223786 1.2095022,1.451558 -1.269494,-0.702791 -1.8146082,-1.728128 -3.1523656,-2.3974 0.9654502,0.627791 1.6556638,1.369849 2.3957229,2.085364 -0.9418025,-0.245902 -2.4974849,-1.107205 -2.7508593,-1.193074 1.344561,1.041151 4.0023638,1.441913 4.6629408,2.780443 0.476817,0.224913 0.435567,0.797605 -0.184437,0.341729 -1.3969091,-0.440741 -2.031186,-1.333394 -3.1832647,-1.926129 0.1893633,0.253669 1.6249219,0.976084 0.8370236,0.995793 -0.8475083,-0.235675 -2.3089455,-1.071993 -2.569313,-1.099599 0.5488183,0.557896 1.856202,0.711106 2.3448829,1.282812 -0.4832348,0.07072 -2.0895398,-0.390878 -1.9012278,-0.190713 1.4184483,0.290628 3.1626346,0.327533 4.149595,1.069193 -0.65209,0.400399 -2.3160079,-0.104548 -2.6591352,0.05563 1.2602232,0.359853 2.9499402,-0.05309 4.0081202,0.585878 1.058081,0.549338 2.557426,1.140503 2.382144,2.068967 -0.05885,0.390985 0.451346,1.80663 -0.812672,1.146054 -0.967127,-0.699686 -1.074897,-1.623493 -1.62158,-2.43083 -0.171915,0.325059 0.848049,1.381665 0.111653,1.201198 -0.740301,-0.642454 -1.385779,-1.366434 -2.5451924,-1.798693 1.1938034,0.65193 1.8102344,1.545995 2.6526124,2.338906 -2.51264,-0.993437 -4.559323,-2.32807 -6.2394152,-3.77714 0.092686,0.507527 1.7532871,1.164322 1.2705248,1.447505 -0.6564987,-0.217457 -1.0305496,-0.187059 -0.1661727,0.01531 0.9070799,0.265339 2.3206305,0.98231 2.3377072,1.341767 -0.5962127,-0.169044 -2.0585707,-0.50298 -2.1992248,-0.439976 1.6077717,0.359943 3.1089187,0.869648 4.4534647,1.487843 -1.081408,0.02988 -3.0230783,-0.693926 -3.3890153,-0.569499 0.6404038,0.147825 2.2591923,0.472943 2.1072813,0.68611 -0.6464652,0.07751 -1.4274004,0.378676 -0.2785818,0.141886 0.9027438,-0.204954 2.7908878,-0.03454 2.7527268,0.4881 -0.611701,-0.01603 -2.259124,0.658358 -0.86922,0.221593 1.513504,-0.288001 2.820826,0.668243 2.389343,1.475263 -0.01089,0.901534 -0.0657,1.80274 -0.06668,2.704334 1.700976,0.237056 1.187523,-0.12149 1.220002,-0.677918 -0.01405,-0.834175 -0.329687,-2.789348 0.777932,-3.437669 0.709096,-0.46266 2.358104,0.04945 2.558301,0.07441 -0.439296,-0.392863 -2.739433,-0.366361 -1.247442,-0.921533 0.856579,-0.413176 2.131464,-0.256538 3.010689,0.04976 -0.574165,-0.101202 -1.323485,-0.67824 -0.195578,-0.592002 0.551646,-0.05446 1.888068,-0.219275 0.586976,-0.146065 -1.061387,0.04869 -2.045643,0.312349 -3.092985,0.399026 0.900134,-0.662444 2.098898,-1.444118 3.730044,-1.311347 0.512806,0.04675 1.099577,-0.07854 0.256021,-0.104422 -0.630982,0.08246 -2.14123,0.04947 -1.008506,-0.393834 0.179683,-0.40604 2.159516,-0.622916 1.916427,-0.577027 -0.985526,-0.126649 1.338516,-0.84613 -0.09002,-0.384784 -0.450828,0.249338 -2.144377,0.972783 -1.299156,0.16609 0.5447,-0.559888 1.359306,-1.017218 2.223936,-1.41682 -0.401505,0.277773 -1.952379,0.772999 -1.127503,0.02569 0.164633,-0.341723 1.41776,-0.847348 0.665176,-0.789113 0.01015,-0.241325 0.69017,-0.982698 0.1431,-0.413047 -0.09032,0.2521 -0.929512,1.168013 -0.617633,0.394762 0.0096,-0.417979 0.578415,-1.416508 0.530612,-1.44141 -0.804549,1.153893 -0.679662,2.492908 -1.953385,3.542906 -0.717386,0.973604 -2.214641,1.624452 -3.485753,2.346415 -0.85469,0.514313 -1.652837,1.058843 -2.403315,1.623656 -0.374548,-1.063814 1.081546,-1.89019 1.853566,-2.764386 0.477761,-0.605892 1.514562,-0.897648 2.576233,-1.027687 -0.584525,0.09273 -1.84936,0.06474 -0.81599,-0.351402 0.32993,-0.191616 1.225707,-0.881689 0.290696,-0.379371 -0.574911,0.239859 -1.447123,1.19937 -1.785535,0.949953 0.174412,-0.349644 -0.003,-1.509519 -0.07964,-0.576128 -0.147111,0.846652 -0.846204,1.61906 -1.65676,2.311893 -0.859702,0.510751 -0.355899,-0.94287 -0.260503,-1.257898 0.413534,-0.913787 1.151992,-1.837082 2.398586,-2.473999 0.940249,-0.509214 2.607439,-0.242109 3.204566,0.194911 -0.481378,-0.250336 -1.792408,-0.832118 -0.271746,-0.815544 1.14798,-0.305955 -1.680678,0.284644 -0.697274,-0.352684 0.296106,-0.279623 1.277944,-0.759242 1.256445,-0.898543 -1.164475,0.51361 -1.806763,1.518483 -3.453492,1.592839 0.959417,-0.834765 1.821741,-1.947658 3.712506,-2.167506 0.509018,0.0025 2.04505,-0.520025 0.833134,-0.221037 -0.587204,0.304949 -2.405743,0.298024 -1.201336,-0.244077 0.328469,-0.14319 1.371839,-0.902746 0.497587,-0.362965 -0.792812,0.516126 -0.954938,-0.0088 -0.602798,-0.434015 0.1754,-0.316393 0.351712,-1.225721 0.02603,-0.447708 -0.269966,0.699465 -0.290078,1.532591 -1.345769,2.023557 -0.957497,0.748167 -0.302208,-0.600601 -0.310381,-0.920243 0.153476,-0.840742 0.299733,-1.68736 0.692093,-2.505074 -0.125161,0.348682 -0.637541,1.090365 -0.738029,0.300819 -0.05613,-0.285794 -0.307009,-0.966982 -0.176198,-0.301373 0.110221,0.593396 0.720743,1.36333 -0.08603,1.861768 -0.230211,-0.277693 -0.702499,-1.590416 -0.469175,-0.702655 0.302905,0.753827 0.776889,1.545924 0.283209,2.310401 -0.215975,0.68909 -1.309228,1.657961 -1.976447,1.895697 0.14298,-0.881507 1.154839,-1.597187 1.638911,-2.415859 -0.390946,0.364465 -1.137113,1.31992 -1.441552,1.248271 0.09883,-0.236513 0.404867,-1.395386 0.02016,-0.600432 -0.484981,1.13573 -0.466582,2.446135 -1.882091,3.365674 -0.412506,-0.499956 -0.10366,-1.221603 -0.08912,-1.800279 0.200271,-0.862146 0.444838,-1.76464 1.18978,-2.529886 0.325458,-0.208072 2.218306,-0.787007 0.978374,-0.513393 -0.484032,0.261298 -1.470602,0.452668 -0.853851,-0.141489 0.525262,-0.969208 1.140266,-1.922538 1.842388,-2.854437 -0.658361,0.413536 -0.948241,1.54294 -1.537034,1.595179 -0.108828,-0.480742 -0.04396,-1.540548 -0.145487,-1.677677 -0.149581,1.094499 0.264832,2.26247 -0.678237,3.27686 -0.351201,0.600243 -0.671443,1.206651 -0.941776,1.820514 -0.210794,-1.414521 -0.02057,-2.852615 0.693671,-4.214722 0.155642,-0.307205 0.218163,-1.661277 0.06868,-0.752134 -0.165716,0.741454 -0.549479,1.458327 -0.894069,2.177054 -0.04952,-0.938222 -0.08688,-1.876712 -0.159434,-2.814485 -0.0073,0.0502 -0.01473,0.100419 -0.02208,0.150595 z"
       style="display:inline;fill:#000000;stroke:none;stroke-width:0.00171858"
       id="path4239" />
  </g>
  <g
     style="display:inline"
     inkscape:label="christmas stocking"
     id="layer2"
     inkscape:groupmode="layer">
    <path
       id="path4284"
       d="M 2.6458333,10.583333 C 3.6844142,12.54188 5.9987188,23.279138 5.7632017,25.274275 6.5747916,34.112981 19.84375,33.072917 23.8125,31.75 27.78125,30.427083 38.364583,25.135417 25.254419,22.661905 22.572914,22.155983 21.487164,11.203239 22.754167,7.14375 Z"
       style="display:inline;fill:none;stroke:#000000;stroke-width:0.245422px;stroke-linecap:butt;stroke-linejoin:miter;stroke-opacity:1" />
  </g>
  <g
     style="display:none"
     inkscape:label="anchor"
     id="layer3"
     inkscape:groupmode="layer">
    <path
       id="path4282"
       d="m 10.717092,4.7980873 c -4.0015208,3.526148 -3.7502105,6.5170797 -1.8212284,8.0714677 1.9289824,1.554388 5.1760404,1.599203 6.4468204,-0.91294"
       style="fill:none;stroke:#000000;stroke-width:0.245422px;stroke-linecap:butt;stroke-linejoin:miter;stroke-opacity:1" />
    <path
       id="path1995"
       d="M 16.88923,0.94125683 C 14.594461,4.8784381 9.0798746,13.359091 9.2927516,12.993851"
       style="fill:none;stroke:#000000;stroke-width:0.245422px;stroke-linecap:butt;stroke-linejoin:miter;stroke-opacity:1" />
  </g>
</svg>
