<?xml version="1.0" encoding="UTF-8" standalone="no"?>
<svg
   xmlns:dc="http://purl.org/dc/elements/1.1/"
   xmlns:cc="http://creativecommons.org/ns#"
   xmlns:rdf="http://www.w3.org/1999/02/22-rdf-syntax-ns#"
   xmlns:svg="http://www.w3.org/2000/svg"
   xmlns="http://www.w3.org/2000/svg"
   xmlns:sodipodi="http://sodipodi.sourceforge.net/DTD/sodipodi-0.dtd"
   xmlns:inkscape="http://www.inkscape.org/namespaces/inkscape"
   inkscape:version="1.0 (4035a4fb49, 2020-05-01)"
   sodipodi:docname="icon_simple.svg"
   id="svg8"
   version="1.1"
   viewBox="0 0 33.866667 33.866667"
   height="128"
   width="128">
  <defs
     id="defs2">
    <pattern
       id="EMFhbasepattern"
       patternUnits="userSpaceOnUse"
       width="6"
       height="6"
       x="0"
       y="0" />
    <pattern
       id="EMFhbasepattern-9"
       patternUnits="userSpaceOnUse"
       width="6"
       height="6"
       x="0"
       y="0" />
    <pattern
       id="EMFhbasepattern-3"
       patternUnits="userSpaceOnUse"
       width="6"
       height="6"
       x="0"
       y="0" />
  </defs>
  <sodipodi:namedview
     inkscape:window-maximized="1"
     inkscape:window-y="-8"
     inkscape:window-x="-8"
     inkscape:window-height="1017"
     inkscape:window-width="1920"
     width="128px"
     units="px"
     showgrid="true"
     inkscape:document-rotation="0"
     inkscape:current-layer="layer1"
     inkscape:document-units="mm"
     inkscape:cy="64.32996"
     inkscape:cx="64.333476"
     inkscape:zoom="4.6680096"
     inkscape:pageshadow="2"
     inkscape:pageopacity="0.0"
     borderopacity="1.0"
     bordercolor="#666666"
     pagecolor="#ffffff"
     id="base">
    <inkscape:grid
       id="grid1971"
       type="xygrid" />
  </sodipodi:namedview>
  <metadata
     id="metadata5">
    <rdf:RDF>
      <cc:Work
         rdf:about="">
        <dc:format>image/svg+xml</dc:format>
        <dc:type
           rdf:resource="http://purl.org/dc/dcmitype/StillImage" />
        <dc:title></dc:title>
      </cc:Work>
    </rdf:RDF>
  </metadata>
  <g
     style="display:inline"
     inkscape:label="colors"
     id="layer10"
     inkscape:groupmode="layer" />
  <g
     style="display:inline"
     id="layer1"
     inkscape:groupmode="layer"
     inkscape:label="eye">
    <path
       d="M 2.6458333,10.583333 C 18.719973,23.157713 22.47895,7.373578 22.754167,7.14375 10.895245,-3.4717281 3.8713525,5.8445305 2.6458333,10.583333 Z m 0.371933,-0.68975 C 3.5983312,8.2087812 4.8297306,6.3241668 6.1811399,5.0521486 8.5292442,2.8419885 11.37805,1.9987099 14.405845,2.6175441 c 0.297771,0.06086 0.673454,0.1500219 0.834853,0.1981379 L 15.53415,2.903166 15.019592,3.7382248 C 13.905303,5.546568 11.895214,8.715812 11.808325,8.8013274 11.744311,8.8643313 11.128976,8.9905286 9.7776312,9.2177972 8.7112646,9.3971376 7.8147965,9.5350025 7.7854801,9.5241627 7.6874967,9.4879336 7.9433848,8.6633716 8.2313382,8.0874512 8.6463364,7.2574348 9.1811738,6.5433757 10.046488,5.6640531 c 0.572446,-0.5817132 0.75522,-0.8011795 0.719855,-0.8643718 -0.02607,-0.046583 -0.0852,-0.084697 -0.131412,-0.084697 -0.119183,0 -1.2858854,1.1834638 -1.7321972,1.7570836 C 8.1732518,7.4096302 7.7093931,8.313322 7.5160165,9.1736769 L 7.4152995,9.6217797 5.2865406,9.9840771 C 4.1157233,10.183341 3.0873189,10.357557 3.0011978,10.371223 L 2.844614,10.39607 Z m 5.6791073,2.556465 C 8.0242277,11.759806 7.7205313,11.078209 7.7205313,10.258807 c 0,-0.3517305 0.010647,-0.3861589 0.1275302,-0.4123553 0.4093837,-0.091754 3.5269035,-0.5999186 3.5935395,-0.5857576 0.05349,0.011369 -0.289931,0.5923984 -1.031869,1.7457829 -0.6116271,0.950809 -1.1481963,1.766205 -1.1923761,1.811992 -0.070104,0.07265 -0.1363454,0.02576 -0.5204823,-0.368421 z m 4.1248684,2.806565 C 10.094955,15.036848 6.791811,13.530385 3.3683916,10.94523 3.0184063,10.680942 3.0149498,10.675702 3.1700112,10.644458 3.2568073,10.626969 4.1695219,10.47115 5.198266,10.298193 6.2270102,10.125236 7.1350774,9.9703399 7.2161936,9.9539789 c 0.1453777,-0.029322 0.1480238,-0.023934 0.185315,0.3773031 0.052484,0.564701 0.1319972,0.86512 0.3533124,1.334884 0.3785931,0.803604 1.031595,1.428606 1.9778543,1.893045 0.7691647,0.377519 1.4035467,0.525762 2.2388647,0.523182 1.103917,-0.0034 1.98993,-0.330152 2.702313,-0.996551 0.30076,-0.281347 0.859179,-1.036954 0.801878,-1.085037 -0.0101,-0.0085 -0.07083,-0.04264 -0.134959,-0.07591 -0.104263,-0.0541 -0.136613,-0.02703 -0.305839,0.255893 -0.780486,1.304885 -2.493306,1.902101 -4.207855,1.46717 -0.545703,-0.138429 -1.3494631,-0.498341 -1.3494631,-0.604269 0,-0.03219 0.1232265,-0.242294 0.2738374,-0.466898 0.1506103,-0.224604 0.6895787,-1.058776 1.1977077,-1.853714 0.508129,-0.7949392 0.953843,-1.477747 0.990478,-1.5173517 0.05676,-0.061364 10.117316,-1.8249315 10.418533,-1.8263187 0.05456,-2.513e-4 0.09919,0.025926 0.09919,0.058174 0,0.1299157 -0.543988,1.4304529 -0.878414,2.100064 -0.725717,1.4530844 -1.385425,2.3896574 -2.373288,3.3693024 -1.007598,0.999216 -1.977368,1.607848 -3.196049,2.005857 -0.909133,0.296915 -2.132569,0.428861 -3.187869,0.343809 z M 12.281378,8.6493942 c 0.336714,-0.513292 2.151343,-3.3910455 2.748983,-4.359511 0.38475,-0.6234811 0.73304,-1.170119 0.773978,-1.2147505 0.06407,-0.069846 0.151664,-0.050856 0.628913,0.1363343 0.648558,0.2543833 1.66859,0.7556264 2.311562,1.1359004 1.288927,0.7623124 3.732138,2.604504 3.594117,2.7099786 -0.0128,0.00978 -2.242296,0.3945842 -4.95444,0.8551203 -2.712144,0.4605359 -4.994238,0.8519121 -5.071321,0.8697243 l -0.14015,0.032386 z M 12.8219,32.002378 C 9.082116,31.127033 6.7881883,29.209566 6.1298121,26.408546 6.0447433,26.046626 5.9528545,25.304741 5.9256149,24.759913 L 5.8760879,23.769315 6.22284,24.03628 c 0.4897437,0.377055 0.7876198,0.651521 0.7876198,0.725721 0,0.03499 -0.1713372,0.0456 -0.3807497,0.02358 -0.3576833,-0.03763 -0.3419014,-0.02631 0.260513,0.18677 0.7779361,0.275164 1.8927265,0.846423 2.0959408,1.074034 0.1451081,0.162529 0.1448393,0.165216 -0.011838,0.118421 -0.3611612,-0.10787 -1.6537273,-0.374213 -1.8160613,-0.374213 -0.3001222,0 -0.1189784,0.07535 0.6809613,0.283261 0.8146388,0.211731 2.4111281,0.7527 2.9690731,1.00607 0.505305,0.229465 0.149396,0.195027 -1.3129474,-0.127045 -1.351185,-0.297587 -1.5218227,-0.323342 -1.3987536,-0.211105 0.041882,0.0382 0.4188245,0.150471 0.8376491,0.249502 0.4188243,0.09903 0.8484346,0.225112 0.9546894,0.280188 0.1860575,0.09644 0.1779175,0.103799 -0.2204339,0.199361 -0.2274935,0.05458 -0.4136244,0.135559 -0.4136244,0.179967 0,0.046 0.06036,0.05528 0.140276,0.02156 0.077152,-0.03254 0.6272348,-0.07317 1.2224068,-0.09028 0.888775,-0.02556 1.152797,-0.0058 1.477627,0.110715 0.217523,0.078 0.407457,0.179581 0.422076,0.225727 0.01462,0.04615 -0.181391,0.12873 -0.435576,0.183523 -0.254185,0.0548 -0.570368,0.152651 -0.702629,0.217461 l -0.240473,0.117835 0.280552,-0.05992 c 0.154304,-0.03296 0.587156,-0.05912 0.961894,-0.05814 0.776844,0.0021 1.183623,0.161131 1.562143,0.610976 0.196039,0.232979 0.214414,0.304382 0.171095,0.664816 -0.02669,0.222094 -0.04885,0.899781 -0.04923,1.505976 l -6.88e-4,1.10217 -0.220434,-0.0066 c -0.121239,-0.0036 -0.581144,-0.09104 -1.022012,-0.194228 z m 2.713134,0.391027 c -0.161193,-0.03642 -0.176292,-0.103936 -0.229487,-1.026207 -0.07129,-1.236012 -0.0011,-1.857812 0.269863,-2.392365 0.382968,-0.755375 1.071398,-0.942261 2.423376,-0.657863 0.318061,0.06691 0.594041,0.1059 0.613289,0.08665 0.06713,-0.06713 -0.263599,-0.191217 -0.86215,-0.323479 -0.991244,-0.219038 -1.027769,-0.321623 -0.216083,-0.606907 0.663316,-0.233135 1.740919,-0.219419 2.622496,0.03338 0.131416,0.03768 0.09217,-0.0063 -0.114005,-0.127902 -0.49984,-0.294698 -0.450147,-0.358185 0.331287,-0.423251 0.850031,-0.07078 1.22526,-0.189119 0.624375,-0.196914 -0.352393,-0.0046 -2.242421,0.23513 -2.87567,0.364707 -0.346178,0.07084 -0.204453,-0.07906 0.432587,-0.457517 0.859209,-0.510445 1.603107,-0.714836 2.601721,-0.714836 0.46945,0 0.855523,-0.03503 0.883413,-0.08016 0.03158,-0.05109 -0.206501,-0.08056 -0.656571,-0.08125 -0.721253,-0.0011 -1.066822,-0.05184 -1.066822,-0.156578 0,-0.130148 1.038326,-0.572486 1.588117,-0.676554 0.527514,-0.09985 0.833788,-0.207825 0.589504,-0.207825 -0.190434,0 -0.08449,-0.161254 0.207074,-0.315174 0.513921,-0.271308 0.135001,-0.181274 -0.651739,0.154858 -0.74899,0.320004 -1.011536,0.384574 -1.011536,0.248777 0,-0.102164 0.504379,-0.531749 0.989549,-0.84281 0.227267,-0.145708 0.539461,-0.345559 0.693765,-0.444112 0.154304,-0.09855 0.214275,-0.157707 0.133269,-0.131453 -0.08101,0.02625 -0.293504,0.07112 -0.472219,0.09969 l -0.324935,0.05196 0.190484,-0.257644 c 0.104766,-0.141704 0.299229,-0.327477 0.43214,-0.412828 0.503883,-0.323577 0.554059,-0.38096 0.446474,-0.510593 -0.08104,-0.09765 -0.06735,-0.16509 0.07372,-0.363215 0.09528,-0.133814 0.137789,-0.243299 0.09445,-0.243299 -0.04333,0 -0.211182,0.180355 -0.372995,0.400789 -0.161814,0.220434 -0.330072,0.400789 -0.373906,0.400789 -0.119586,0 -0.0058,-0.450638 0.260302,-1.031011 0.258589,-0.563961 0.261015,-0.572145 0.169655,-0.572145 -0.08508,0 -0.380862,0.615184 -0.662505,1.377898 -0.377125,1.021289 -0.62904,1.437617 -1.268343,2.096136 -0.785777,0.809394 -1.058334,1.004181 -2.654119,1.896804 -0.727432,0.406898 -1.737205,1.023452 -2.243942,1.370117 -0.774585,0.529904 -0.929134,0.608216 -0.970286,0.491654 -0.06008,-0.170186 0.03701,-0.529717 0.217407,-0.80504 0.07419,-0.113221 0.553375,-0.613714 1.064866,-1.112206 1.036985,-1.010634 1.407879,-1.233579 2.440216,-1.46682 l 0.654027,-0.147769 -0.541065,-0.0068 c -0.297586,-0.0037 -0.541065,-0.0419 -0.541065,-0.08486 0,-0.04295 0.117231,-0.138478 0.260513,-0.212274 0.348527,-0.179507 0.781538,-0.513018 0.781538,-0.601952 0,-0.129026 -0.54719,0.153149 -1.255947,0.647664 -0.811743,0.566372 -0.948003,0.600458 -0.886552,0.221774 0.05056,-0.31154 -0.01109,-0.698532 -0.111264,-0.698532 -0.03895,0 -0.07081,0.103366 -0.07081,0.229703 0,0.441321 -0.518018,1.30458 -1.151351,1.91869 -0.682061,0.661359 -0.932751,0.742943 -0.932751,0.30356 0,-0.428777 0.268334,-1.183707 0.596436,-1.678016 0.416205,-0.627039 1.289732,-1.411618 1.937584,-1.740288 0.521047,-0.264338 0.580229,-0.275887 1.389795,-0.271205 0.606248,0.0035 0.947666,0.04471 1.206283,0.145588 0.630627,0.245981 0.694896,0.232073 0.210631,-0.04558 -0.258891,-0.148435 -0.475317,-0.304903 -0.480947,-0.347706 -0.0056,-0.0428 0.181496,-0.101223 0.415836,-0.129824 0.63178,-0.07711 0.602085,-0.148393 -0.06182,-0.148393 -0.702858,0 -0.690861,-0.03215 0.240065,-0.643321 0.350969,-0.230418 0.638126,-0.451391 0.638126,-0.491053 0,-0.09707 -0.402805,0.116499 -1.08213,0.573759 -0.755176,0.508314 -1.278078,0.763197 -1.787457,0.871276 -0.233625,0.04957 -0.441183,0.09013 -0.461239,0.09013 -0.02006,0 0.225198,-0.240665 0.54501,-0.53481 0.992661,-0.912996 1.864728,-1.390797 2.748887,-1.506103 0.600563,-0.07832 1.475504,-0.29207 1.525292,-0.37263 0.06214,-0.100551 -0.06668,-0.08894 -0.46355,0.04179 -0.899444,0.296265 -1.985001,0.211114 -1.298168,-0.101829 0.323502,-0.147397 0.994775,-0.602686 0.994775,-0.674702 0,-0.03563 -0.156471,0.02692 -0.347713,0.138993 -0.618721,0.362593 -0.894326,0.2423 -0.625686,-0.273095 0.08905,-0.170857 0.184419,-0.449079 0.211919,-0.618271 0.0464,-0.285458 0.04117,-0.29668 -0.07249,-0.155745 -0.06737,0.08353 -0.216157,0.433143 -0.330643,0.776911 -0.236822,0.711113 -0.577237,1.137194 -1.180004,1.476956 l -0.38075,0.214617 v -0.18577 c 0,-0.297718 0.483212,-2.478497 0.641578,-2.895499 0.07953,-0.209412 0.128298,-0.38075 0.108375,-0.38075 -0.01992,0 -0.118761,0.09596 -0.219643,0.213239 -0.227634,0.264641 -0.325155,0.209883 -0.440249,-0.247197 -0.04949,-0.196523 -0.126064,-0.379621 -0.170174,-0.406882 -0.122941,-0.07598 -0.09642,0.128558 0.08413,0.648726 0.207081,0.596625 0.219364,1.032411 0.03485,1.236301 -0.183927,0.203238 -0.247702,0.152863 -0.493066,-0.389466 -0.296699,-0.655793 -0.323506,-0.368898 -0.03535,0.378319 0.377887,0.979892 0.390971,1.193615 0.109521,1.789028 -0.131362,0.277898 -0.386127,0.670813 -0.566144,0.873144 -0.34757,0.390652 -1.187186,1.012343 -1.263773,0.935757 -0.08852,-0.08852 0.281522,-0.670519 0.879842,-1.383789 0.332836,-0.396781 0.605951,-0.75457 0.606923,-0.795085 9.79e-4,-0.04052 -0.264921,0.184928 -0.590873,0.500986 -0.325952,0.316058 -0.630038,0.574651 -0.675746,0.574651 -0.05561,0 -0.05844,-0.08601 -0.0085,-0.259984 0.04101,-0.142991 0.07342,-0.332363 0.07201,-0.420828 -0.005,-0.316096 -0.219983,0.105377 -0.526873,1.032978 -0.393243,1.188613 -0.611492,1.60233 -1.092365,2.070715 -0.515137,0.501759 -0.585909,0.441672 -0.572306,-0.485901 0.0167,-1.138404 0.447273,-2.434727 1.037886,-3.124725 0.204984,-0.239479 0.423401,-0.377156 0.855983,-0.539563 0.319427,-0.119925 0.615044,-0.249263 0.656926,-0.28742 0.120355,-0.109646 -0.225602,-0.08227 -0.527268,0.04173 -0.393388,0.161697 -0.791327,0.235107 -0.791327,0.145979 0,-0.11185 0.823105,-1.468433 1.396193,-2.301107 0.675523,-0.981507 0.662033,-0.956506 0.456833,-0.846686 -0.09364,0.05012 -0.371913,0.378896 -0.618371,0.730618 -0.431847,0.616293 -0.676553,0.847846 -0.783249,0.74115 -0.02784,-0.02784 -0.05315,-0.324156 -0.05625,-0.658481 -0.0098,-1.060533 -0.125133,-0.98565 -0.180182,0.117017 -0.06037,1.209239 -0.127983,1.495635 -0.461932,1.956638 -0.135033,0.186408 -0.443258,0.705383 -0.684945,1.153278 l -0.439431,0.814355 0.03454,-1.08213 c 0.03735,-1.170215 0.14301,-1.671447 0.545766,-2.589089 0.155587,-0.354491 0.260463,-0.745199 0.282265,-1.051555 l 0.03469,-0.487482 -0.268674,0.761499 c -0.147771,0.418824 -0.361842,0.941638 -0.475713,1.161809 l -0.207039,0.400309 -0.04694,-0.600704 c -0.02582,-0.330387 -0.0732,-0.925343 -0.105299,-1.322124 l -0.05836,-0.72142 -0.06249,0.641262 c -0.03437,0.352694 -0.09199,1.038044 -0.128052,1.522998 l -0.06557,0.881736 -0.274942,-0.561105 c -0.254782,-0.519963 -0.277169,-0.627976 -0.305322,-1.473125 -0.03405,-1.022202 -0.169513,-1.081153 -0.171517,-0.07464 -7.15e-4,0.359786 -0.03787,0.639136 -0.08921,0.670871 -0.04839,0.02991 -0.273837,-0.124762 -0.500987,-0.343712 -0.418551,-0.403442 -0.867155,-0.743256 -0.981205,-0.743256 -0.03438,0 0.261515,0.333656 0.657546,0.741459 1.261692,1.299194 1.634053,2.091299 1.634053,3.476046 0,0.822179 -0.0044,0.842935 -0.175433,0.817971 -0.395781,-0.05779 -1.152796,-1.447257 -1.433289,-2.630743 -0.09926,-0.418824 -0.210761,-0.795766 -0.247772,-0.837649 -0.111981,-0.126719 -0.07581,0.54361 0.05208,0.965186 0.154193,0.508284 0.151589,0.667374 -0.01195,0.73013 -0.284876,0.109318 -0.77765,-0.742315 -1.110477,-1.919174 -0.231122,-0.817236 -0.49579,-1.337507 -0.397875,-0.782122 0.0272,0.154304 0.116558,0.496978 0.198565,0.761499 0.189703,0.611903 0.267827,1.001973 0.200675,1.001973 -0.0289,0 -0.257204,-0.157283 -0.507355,-0.349517 -0.577551,-0.443834 -1.2416081,-0.85285 -1.3846427,-0.85285 -0.060784,0 0.129744,0.161178 0.423395,0.358173 0.8853787,0.593954 0.8199147,0.678808 -0.3411553,0.442196 -0.4484286,-0.09138 -0.8331896,-0.148287 -0.8550249,-0.126452 -0.021836,0.02184 0.063751,0.06431 0.1901923,0.09439 1.8087726,0.430272 2.4765376,0.708224 2.9229436,1.216651 0.133425,0.151964 0.227929,0.29096 0.210007,0.308881 -0.143097,0.143097 -2.9964137,-0.521083 -3.7647544,-0.87634 -0.5887471,-0.272218 -0.6063835,-0.159559 -0.02004,0.128011 0.2424774,0.118922 0.4408678,0.250928 0.4408678,0.293348 0,0.04712 -0.2650879,0.05842 -0.6813412,0.02904 -0.4305149,-0.03038 -0.6813412,-0.01873 -0.6813412,0.03164 0,0.04594 0.4330917,0.101985 1.0220118,0.132262 1.8318972,0.09418 3.2002992,0.377169 4.0561832,0.838819 0.475302,0.256369 1.16583,1.06366 1.516643,1.773094 0.209461,0.423581 0.258081,0.623831 0.272473,1.122209 0.02007,0.695122 -0.01835,0.887177 -0.177479,0.887177 -0.193938,0 -0.380103,-0.495396 -0.429823,-1.143788 -0.06025,-0.785639 -0.200046,-0.846371 -0.232204,-0.100874 -0.01326,0.307389 -0.06523,0.584306 -0.115496,0.61537 -0.05026,0.03107 -0.195138,0.0028 -0.321944,-0.06274 -0.126806,-0.06557 -0.286105,-0.108028 -0.354001,-0.09434 -0.07323,0.01476 0.114301,0.187924 0.460979,0.42567 0.934161,0.640634 1.402433,1.485364 0.858185,1.548108 -0.238773,0.02753 -1.14574,-0.456295 -1.715766,-0.915276 -0.368207,-0.296479 -0.705596,-0.920333 -0.628719,-1.162547 0.02729,-0.08598 0.227205,-0.377608 0.444257,-0.648061 0.217052,-0.270452 0.394641,-0.525511 0.394641,-0.566797 0,-0.04129 -0.204392,0.111739 -0.454203,0.340053 -0.564029,0.51549 -0.644967,0.44392 -0.501778,-0.443699 0.05329,-0.330364 0.07669,-0.620871 0.05199,-0.645571 -0.109474,-0.109474 -0.245268,0.384078 -0.323482,1.175715 l -0.08483,0.858621 -0.308505,-0.371456 c -0.523909,-0.630814 -0.728682,-1.13499 -0.688213,-1.694466 0.01912,-0.264298 0.02392,-0.480541 0.01068,-0.480541 -0.01324,0 -0.07683,0.126248 -0.141301,0.280552 -0.1476098,0.35328 -0.2486951,0.355062 -0.3637598,0.0064 -0.094152,-0.285283 -0.3227475,-0.550263 -0.3227475,-0.374117 0,0.05103 0.057216,0.180114 0.1271461,0.286842 0.1351359,0.206243 0.096872,0.361415 -0.089122,0.361415 -0.062057,0 -0.2955936,-0.16232 -0.5189707,-0.360711 -0.2233771,-0.19839 -0.4465979,-0.36071 -0.4960458,-0.36071 -0.1436852,0 0.1747131,0.310486 0.7134637,0.695733 0.6100072,0.436201 0.948083,0.816037 0.8307523,0.933368 C 9.7933223,22.31837 9.1876426,21.897962 8.292984,21.092421 7.6097984,20.477289 6.7985856,19.883752 6.7320204,19.950317 c -0.019553,0.01955 0.2064361,0.221089 0.5021948,0.44786 0.2957586,0.226772 0.7722047,0.652891 1.0587688,0.946932 0.6195457,0.63571 0.5680303,0.632541 -0.8767048,-0.05395 C 6.8679615,21.030622 6.3829853,20.829571 6.338554,20.84438 c -0.1335754,0.04453 0.7431778,0.508179 1.9921712,1.053519 1.519804,0.663583 1.9644268,0.938174 2.4941688,1.540355 0.238661,0.271296 0.433928,0.514775 0.433928,0.541065 0,0.232832 -1.3763965,-0.436151 -2.3646547,-1.149315 -0.8196098,-0.59146 -1.2325577,-0.843438 -1.2892849,-0.78671 -0.017568,0.01757 0.2037683,0.201506 0.4918575,0.408753 0.4988751,0.358882 0.6226445,0.600216 0.2496167,0.486719 C 8.2508713,22.909714 7.6556652,22.652808 7.0236762,22.367864 6.3916871,22.08292 5.85633,21.868059 5.8339939,21.890395 c -0.071461,0.07146 0.5549093,0.427293 1.2252163,0.696029 0.357464,0.143313 0.7362098,0.326904 0.8416568,0.407981 0.1784474,0.137206 0.1806221,0.147536 0.031407,0.149181 -0.088173,9.79e-4 -0.443039,-0.05233 -0.7885899,-0.118453 -0.7257602,-0.138878 -0.8546449,-0.146487 -0.8546449,-0.05046 0,0.03837 0.5140119,0.148545 1.1422486,0.244834 1.3179946,0.202006 2.1749681,0.416431 2.6510752,0.66333 l 0.334802,0.173622 -0.320631,0.07894 c -0.2182666,0.05374 -0.6252484,0.04871 -1.2747724,-0.01574 -0.8708173,-0.08641 -1.1044214,-0.08036 -0.9981888,0.02588 0.081414,0.08141 1.1850973,0.199118 1.8812713,0.200631 0.4017849,8.73e-4 0.9248149,0.03648 1.1622879,0.07913 0.655953,0.117802 2.348384,1.000633 2.856542,1.490072 l 0.420829,0.405325 0.016,0.556568 c 0.03268,1.136476 0.0038,1.209374 -0.446398,1.124927 -0.44701,-0.08386 -0.912677,-0.610291 -1.446021,-1.634706 -0.273604,-0.52552 -0.501503,-0.876239 -0.542648,-0.835093 -0.04115,0.04115 0.01397,0.253336 0.131228,0.505242 0.111192,0.238868 0.20252,0.479392 0.20295,0.534502 0.0013,0.167736 -0.200633,0.1123 -0.406073,-0.111471 C 11.32218,26.099732 10.296664,25.31222 9.8889982,25.10564 9.3146606,24.8146 9.2346233,24.866817 9.7368914,25.20487 c 0.4646906,0.312765 2.0306626,1.787023 1.9664256,1.851261 -0.02075,0.02074 -0.625221,-0.251576 -1.343279,-0.605163 C 9.0229247,25.792542 7.2974112,24.702174 6.3679543,23.928329 L 5.8456885,23.493497 5.6618028,22.297428 C 5.1523111,18.98348 3.7527044,12.91234 3.1152703,11.251213 c -0.02797,-0.07289 0.3509171,0.155079 0.8419708,0.506592 3.7246898,2.666263 7.2893499,4.009236 10.1328949,3.817532 3.273711,-0.220705 5.854662,-2.156956 7.727343,-5.7971145 0.243575,-0.4734668 0.418357,-0.7706709 0.388404,-0.6604539 -0.115331,0.4243795 -0.147493,3.7551344 -0.04884,5.0581444 0.302912,4.000977 1.141485,7.030272 2.256038,8.149805 0.370261,0.371916 0.461095,0.40546 2.115803,0.781325 2.602326,0.591116 4.305988,1.445734 4.762675,2.389125 0.218916,0.452217 0.209812,0.800341 -0.03467,1.325509 -0.488915,1.050261 -2.214239,2.386341 -4.567692,3.537199 -3.150518,1.540629 -5.114742,1.989929 -8.937594,2.04439 -1.124213,0.01601 -2.121669,0.01159 -2.21657,-0.0099 z m 7.747457,-9.087708 c 0.10362,-0.06696 0.101504,-0.07787 -0.01531,-0.07893 -0.07455,-6.35e-4 -0.157839,0.03484 -0.185086,0.07893 -0.0627,0.101448 0.04342,0.101448 0.200394,0 z"
       style="display:inline;fill:none;stroke:#000000;stroke-width:0.245422px;stroke-linecap:butt;stroke-linejoin:miter;stroke-opacity:1"
       id="path4286" />
  </g>
  <g
     style="display:none"
     inkscape:label="tree"
     id="layer9"
     inkscape:groupmode="layer">
    <path
       sodipodi:nodetypes="cccccccccccccccccccccccccccccccccccccccccccccccccccccccccccccccccccccccccccccccccccccccccccccccccccccccccccccccccccccccccccccccccccccccccccc"
       d="m 14.650351,16.025604 c -0.07037,0.982912 -0.10225,1.966546 -0.163734,2.949632 -0.738149,-0.957448 -0.844177,-2.033148 -0.653225,-3.062023 -0.389704,0.469896 0.118496,1.463397 -0.339922,1.646487 -0.47079,-0.405211 -0.768704,-0.904874 -1.446443,-1.214879 1.654695,1.333972 2.695221,2.991113 2.347258,4.640464 0.271098,0.603831 -0.464979,0.572355 -0.604902,0.04602 -0.824549,-0.979887 -1.034114,-2.075508 -1.25112,-3.142204 -0.320027,0.516461 0.611014,1.653957 -0.05452,1.81565 -1.033251,-0.901259 -0.926315,-2.022702 -1.415339,-3.027455 0.03656,0.709409 0.492753,1.397176 0.447593,2.1073 -0.621726,-0.470651 -1.195829,-0.98413 -2.0151934,-1.35118 0.3047515,0.276513 1.6558564,0.901394 0.8974314,1.021915 -0.5293594,-0.152217 -2.5999089,-0.512562 -0.994484,-0.170336 1.291957,0.224751 2.455138,0.741158 2.799964,1.509575 C 11.263094,19.78366 10.00672,19.470447 9.065487,19.207199 8.6487187,19.08233 7.2801893,18.366474 8.176523,18.895605 c 0.606154,0.187422 1.1788196,0.690718 0.0019,0.445019 -0.6775752,-0.05987 -1.1429145,0.108033 -0.2041612,0.07654 1.7327826,0.07316 3.7273112,0.253292 4.8702702,1.076018 0.972266,0.946248 1.695416,2.035441 1.44692,3.148561 0.138902,0.34381 -0.187521,0.874259 -0.453222,0.259656 -0.351943,-0.448701 -0.05769,-1.399 -0.309751,-1.582616 -0.209683,0.336587 0.348027,1.731817 -0.732359,1.045105 -0.703158,-0.256759 0.617375,0.468503 0.730026,0.613277 0.358989,0.314109 1.288875,1.414745 0.272654,1.402242 -0.888658,-0.484409 -1.955252,-1.006276 -2.147646,-1.741297 -0.436358,-0.556235 0.892771,-1.47396 0.793979,-1.672917 -0.299644,0.221888 -1.099371,1.327788 -1.024448,0.481739 -0.0597,-0.38514 0.178451,-0.857164 0.101428,-1.187402 -0.372564,0.632009 -0.211391,1.739609 -0.353629,2.111229 C 10.449753,22.562144 9.7594645,21.633611 10.196807,20.714035 10.141237,20.96711 9.7917679,21.834288 9.650826,21.10188 9.5942573,20.761299 9.1005598,20.349406 9.5016833,20.904052 9.8415857,21.314243 9.3228142,21.545667 8.9904743,21.090796 8.6783109,20.832511 7.9787161,20.206662 8.590831,20.862785 c 0.4193712,0.370393 1.91659,1.223786 1.2095022,1.451558 -1.269494,-0.702791 -1.8146082,-1.728128 -3.1523656,-2.3974 0.9654502,0.627791 1.6556638,1.369849 2.3957229,2.085364 -0.9418025,-0.245902 -2.4974849,-1.107205 -2.7508593,-1.193074 1.344561,1.041151 4.0023638,1.441913 4.6629408,2.780443 0.476817,0.224913 0.435567,0.797605 -0.184437,0.341729 -1.3969091,-0.440741 -2.031186,-1.333394 -3.1832647,-1.926129 0.1893633,0.253669 1.6249219,0.976084 0.8370236,0.995793 -0.8475083,-0.235675 -2.3089455,-1.071993 -2.569313,-1.099599 0.5488183,0.557896 1.856202,0.711106 2.3448829,1.282812 -0.4832348,0.07072 -2.0895398,-0.390878 -1.9012278,-0.190713 1.4184483,0.290628 3.1626346,0.327533 4.149595,1.069193 -0.65209,0.400399 -2.3160079,-0.104548 -2.6591352,0.05563 1.2602232,0.359853 2.9499402,-0.05309 4.0081202,0.585878 1.058081,0.549338 2.557426,1.140503 2.382144,2.068967 -0.05885,0.390985 0.451346,1.80663 -0.812672,1.146054 -0.967127,-0.699686 -1.074897,-1.623493 -1.62158,-2.43083 -0.171915,0.325059 0.848049,1.381665 0.111653,1.201198 -0.740301,-0.642454 -1.385779,-1.366434 -2.5451924,-1.798693 1.1938034,0.65193 1.8102344,1.545995 2.6526124,2.338906 -2.51264,-0.993437 -4.559323,-2.32807 -6.2394152,-3.77714 0.092686,0.507527 1.7532871,1.164322 1.2705248,1.447505 -0.6564987,-0.217457 -1.0305496,-0.187059 -0.1661727,0.01531 0.9070799,0.265339 2.3206305,0.98231 2.3377072,1.341767 -0.5962127,-0.169044 -2.0585707,-0.50298 -2.1992248,-0.439976 1.6077717,0.359943 3.1089187,0.869648 4.4534647,1.487843 -1.081408,0.02988 -3.0230783,-0.693926 -3.3890153,-0.569499 0.6404038,0.147825 2.2591923,0.472943 2.1072813,0.68611 -0.6464652,0.07751 -1.4274004,0.378676 -0.2785818,0.141886 0.9027438,-0.204954 2.7908878,-0.03454 2.7527268,0.4881 -0.611701,-0.01603 -2.259124,0.658358 -0.86922,0.221593 1.513504,-0.288001 2.820826,0.668243 2.389343,1.475263 -0.01089,0.901534 -0.0657,1.80274 -0.06668,2.704334 1.700976,0.237056 1.187523,-0.12149 1.220002,-0.677918 -0.01405,-0.834175 -0.329687,-2.789348 0.777932,-3.437669 0.709096,-0.46266 2.358104,0.04945 2.558301,0.07441 -0.439296,-0.392863 -2.739433,-0.366361 -1.247442,-0.921533 0.856579,-0.413176 2.131464,-0.256538 3.010689,0.04976 -0.574165,-0.101202 -1.323485,-0.67824 -0.195578,-0.592002 0.551646,-0.05446 1.888068,-0.219275 0.586976,-0.146065 -1.061387,0.04869 -2.045643,0.312349 -3.092985,0.399026 0.900134,-0.662444 2.098898,-1.444118 3.730044,-1.311347 0.512806,0.04675 1.099577,-0.07854 0.256021,-0.104422 -0.630982,0.08246 -2.14123,0.04947 -1.008506,-0.393834 0.179683,-0.40604 2.159516,-0.622916 1.916427,-0.577027 -0.985526,-0.126649 1.338516,-0.84613 -0.09002,-0.384784 -0.450828,0.249338 -2.144377,0.972783 -1.299156,0.16609 0.5447,-0.559888 1.359306,-1.017218 2.223936,-1.41682 -0.401505,0.277773 -1.952379,0.772999 -1.127503,0.02569 0.164633,-0.341723 1.41776,-0.847348 0.665176,-0.789113 0.01015,-0.241325 0.69017,-0.982698 0.1431,-0.413047 -0.09032,0.2521 -0.929512,1.168013 -0.617633,0.394762 0.0096,-0.417979 0.578415,-1.416508 0.530612,-1.44141 -0.804549,1.153893 -0.679662,2.492908 -1.953385,3.542906 -0.717386,0.973604 -2.214641,1.624452 -3.485753,2.346415 -0.85469,0.514313 -1.652837,1.058843 -2.403315,1.623656 -0.374548,-1.063814 1.081546,-1.89019 1.853566,-2.764386 0.477761,-0.605892 1.514562,-0.897648 2.576233,-1.027687 -0.584525,0.09273 -1.84936,0.06474 -0.81599,-0.351402 0.32993,-0.191616 1.225707,-0.881689 0.290696,-0.379371 -0.574911,0.239859 -1.447123,1.19937 -1.785535,0.949953 0.174412,-0.349644 -0.003,-1.509519 -0.07964,-0.576128 -0.147111,0.846652 -0.846204,1.61906 -1.65676,2.311893 -0.859702,0.510751 -0.355899,-0.94287 -0.260503,-1.257898 0.413534,-0.913787 1.151992,-1.837082 2.398586,-2.473999 0.940249,-0.509214 2.607439,-0.242109 3.204566,0.194911 -0.481378,-0.250336 -1.792408,-0.832118 -0.271746,-0.815544 1.14798,-0.305955 -1.680678,0.284644 -0.697274,-0.352684 0.296106,-0.279623 1.277944,-0.759242 1.256445,-0.898543 -1.164475,0.51361 -1.806763,1.518483 -3.453492,1.592839 0.959417,-0.834765 1.821741,-1.947658 3.712506,-2.167506 0.509018,0.0025 2.04505,-0.520025 0.833134,-0.221037 -0.587204,0.304949 -2.405743,0.298024 -1.201336,-0.244077 0.328469,-0.14319 1.371839,-0.902746 0.497587,-0.362965 -0.792812,0.516126 -0.954938,-0.0088 -0.602798,-0.434015 0.1754,-0.316393 0.351712,-1.225721 0.02603,-0.447708 -0.269966,0.699465 -0.290078,1.532591 -1.345769,2.023557 -0.957497,0.748167 -0.302208,-0.600601 -0.310381,-0.920243 0.153476,-0.840742 0.299733,-1.68736 0.692093,-2.505074 -0.125161,0.348682 -0.637541,1.090365 -0.738029,0.300819 -0.05613,-0.285794 -0.307009,-0.966982 -0.176198,-0.301373 0.110221,0.593396 0.720743,1.36333 -0.08603,1.861768 -0.230211,-0.277693 -0.702499,-1.590416 -0.469175,-0.702655 0.302905,0.753827 0.776889,1.545924 0.283209,2.310401 -0.215975,0.68909 -1.309228,1.657961 -1.976447,1.895697 0.14298,-0.881507 1.154839,-1.597187 1.638911,-2.415859 -0.390946,0.364465 -1.137113,1.31992 -1.441552,1.248271 0.09883,-0.236513 0.404867,-1.395386 0.02016,-0.600432 -0.484981,1.13573 -0.466582,2.446135 -1.882091,3.365674 -0.412506,-0.499956 -0.10366,-1.221603 -0.08912,-1.800279 0.200271,-0.862146 0.444838,-1.76464 1.18978,-2.529886 0.325458,-0.208072 2.218306,-0.787007 0.978374,-0.513393 -0.484032,0.261298 -1.470602,0.452668 -0.853851,-0.141489 0.525262,-0.969208 1.140266,-1.922538 1.842388,-2.854437 -0.658361,0.413536 -0.948241,1.54294 -1.537034,1.595179 -0.108828,-0.480742 -0.04396,-1.540548 -0.145487,-1.677677 -0.149581,1.094499 0.264832,2.26247 -0.678237,3.27686 -0.351201,0.600243 -0.671443,1.206651 -0.941776,1.820514 -0.210794,-1.414521 -0.02057,-2.852615 0.693671,-4.214722 0.155642,-0.307205 0.218163,-1.661277 0.06868,-0.752134 -0.165716,0.741454 -0.549479,1.458327 -0.894069,2.177054 -0.04952,-0.938222 -0.08688,-1.876712 -0.159434,-2.814485 -0.0073,0.0502 -0.01473,0.100419 -0.02208,0.150595 z"
       style="display:inline;fill:#000000;stroke:none;stroke-width:0.00171858"
       id="path4239" />
  </g>
  <g
     style="display:none"
     inkscape:label="christmas stocking"
     id="layer2"
     inkscape:groupmode="layer">
    <path
       id="path4284"
       d="M 2.6458333,10.583333 C 3.6844142,12.54188 5.9987188,23.279138 5.7632017,25.274275 6.5747916,34.112981 19.84375,33.072917 23.8125,31.75 27.78125,30.427083 38.364583,25.135417 25.254419,22.661905 22.572914,22.155983 21.487164,11.203239 22.754167,7.14375 Z"
       style="display:inline;fill:none;stroke:#000000;stroke-width:0.245422px;stroke-linecap:butt;stroke-linejoin:miter;stroke-opacity:1" />
  </g>
  <g
     style="display:none"
     inkscape:label="anchor"
     id="layer3"
     inkscape:groupmode="layer">
    <path
       id="path4282"
       d="m 10.717092,4.7980873 c -4.0015208,3.526148 -3.7502105,6.5170797 -1.8212284,8.0714677 1.9289824,1.554388 5.1760404,1.599203 6.4468204,-0.91294"
       style="fill:none;stroke:#000000;stroke-width:0.245422px;stroke-linecap:butt;stroke-linejoin:miter;stroke-opacity:1" />
    <path
       id="path1995"
       d="M 16.88923,0.94125683 C 14.594461,4.8784381 9.0798746,13.359091 9.2927516,12.993851"
       style="fill:none;stroke:#000000;stroke-width:0.245422px;stroke-linecap:butt;stroke-linejoin:miter;stroke-opacity:1" />
  </g>
</svg>
